<?xml version="1.0" encoding="UTF-8" standalone="no"?>
<svg width="30px" height="36px" viewBox="0 0 30 36" version="1.1" xmlns="http://www.w3.org/2000/svg" xmlns:xlink="http://www.w3.org/1999/xlink">
    <!-- Generator: Sketch 40.3 (33839) - http://www.bohemiancoding.com/sketch -->
    <title>social-apple</title>
    <desc>Created with Sketch.</desc>
    <defs></defs>
    <g id="Page-1" stroke="none" stroke-width="1" fill="none" fill-rule="evenodd">
        <g id="Tablet" transform="translate(-369.000000, -1099.000000)" fill="#FFFFFF">
            <g id="Platforms" transform="translate(0.000000, 1041.000000)">
                <g id="OSX" transform="translate(369.000000, 58.000000)">
                    <g id="social-apple">
                        <g id="Group">
                            <path d="M22.2990654,8.40623377 C19.1588785,8.40623377 17.8317757,9.94909091 15.6448598,9.94909091 C13.4018692,9.94909091 11.6915888,8.41558442 8.97196262,8.41558442 C6.30841121,8.41558442 3.46728972,10.0893506 1.6635514,12.9412987 C-0.869158879,16.9620779 -0.439252336,24.5361039 3.6635514,30.9880519 C5.13084112,33.2976623 7.09345794,35.8877922 9.6635514,35.9158442 L9.71028037,35.9158442 C11.9439252,35.9158442 12.6074766,34.4103896 15.682243,34.3916883 L15.728972,34.3916883 C18.7570093,34.3916883 19.364486,35.9064935 21.588785,35.9064935 L21.635514,35.9064935 C24.2056075,35.8784416 26.271028,33.0077922 27.7383178,30.7075325 C28.7943925,29.0524675 29.1869159,28.2202597 30,26.3501299 C24.0654206,24.0311688 23.1121495,15.3724675 28.9813084,12.052987 C27.1869159,9.74337662 24.6728972,8.40623377 22.2990654,8.40623377 L22.2990654,8.40623377 L22.2990654,8.40623377 Z" id="Shape"></path>
                            <path d="M21.6074766,0 C19.7383178,0.130909091 17.5607477,1.35584416 16.2803738,2.95480519 C15.1214953,4.40415584 14.1682243,6.55480519 14.5420561,8.64 L14.6915888,8.64 C16.682243,8.64 18.7196262,7.40571429 19.9065421,5.82545455 C21.0560748,4.32 21.9252336,2.18805195 21.6074766,0 L21.6074766,0 L21.6074766,0 Z" id="Shape"></path>
                        </g>
                    </g>
                </g>
            </g>
        </g>
    </g>
</svg>