<?xml version="1.0" encoding="UTF-8" standalone="no"?>
<svg width="168px" height="153px" viewBox="0 0 168 153" version="1.1" xmlns="http://www.w3.org/2000/svg" xmlns:xlink="http://www.w3.org/1999/xlink">
    <!-- Generator: Sketch 40.3 (33839) - http://www.bohemiancoding.com/sketch -->
    <title>Logo</title>
    <desc>Created with Sketch.</desc>
    <defs>
        <path d="M1.913,1.401 C0.684,1.497 0.235,2.185 0.225,2.746 C0.213,3.328 0.641,4.003 1.878,4.15 C6.856,4.742 20.227,5 33.457,5 C48.268,5 62.903,4.676 65.384,4.137 C66.401,3.915 66.715,3.258 66.674,2.761 C66.645,2.403 66.391,1.561 64.669,1.473 C54.25,0.944 42.425,0.753 31.777,0.753 C17.945,0.753 6.1,1.076 1.913,1.401 L1.913,1.401 Z M7.876,2.841 C18.772,2.459 39.79,2.247 58.243,2.929 C52.202,3.156 43.076,3.283 33.831,3.283 C24.184,3.283 14.408,3.145 7.876,2.841 L7.876,2.841 Z" id="path-1"></path>
        <path d="M62.207,0.653 C57.277,1.555 44.424,5.25 31.782,9.149 C17.627,13.515 3.739,18.139 1.527,19.385 C0.621,19.897 0.514,20.618 0.699,21.08 C0.833,21.414 1.324,22.145 2.995,21.72 C26.246,15.822 56.074,6.025 62.984,3.29 C64.13,2.838 64.356,2.048 64.201,1.508 C64.067,1.04 63.619,0.6 62.758,0.6 C62.59,0.6 62.407,0.617 62.207,0.653 L62.207,0.653 Z M56.862,3.673 C46.562,7.249 26.541,13.647 8.708,18.435 C20.364,14.352 44.462,6.874 56.862,3.673 L56.862,3.673 Z" id="path-3"></path>
        <path d="M58.288,1.115 C53.546,2.743 41.387,8.312 29.468,14.052 C16.123,20.478 3.077,27.119 1.077,28.682 C0.257,29.323 0.258,30.051 0.51,30.482 C0.692,30.791 1.287,31.44 2.876,30.771 C24.988,21.474 53.023,7.342 59.449,3.607 C60.514,2.988 60.62,2.174 60.386,1.663 C60.212,1.281 59.809,0.955 59.156,0.955 C58.904,0.955 58.615,1.003 58.288,1.115 L58.288,1.115 Z M53.452,4.898 C43.8,9.97 24.955,19.279 8.035,26.672 C18.954,20.897 41.667,9.912 53.452,4.898 L53.452,4.898 Z" id="path-5"></path>
        <path d="M53.703,0.44 C49.257,2.755 38.064,10.074 27.133,17.527 C14.894,25.871 2.986,34.382 1.24,36.225 C0.524,36.981 0.635,37.701 0.948,38.088 C1.174,38.368 1.859,38.921 3.331,38.023 C23.81,25.534 49.425,7.38 55.223,2.731 C56.184,1.96 56.167,1.138 55.861,0.669 C55.663,0.367 55.307,0.131 54.802,0.131 C54.491,0.131 54.124,0.22 53.703,0.44 L53.703,0.44 Z M49.485,4.9 C40.697,11.354 23.451,23.369 7.82,33.201 C17.756,25.863 38.579,11.615 49.485,4.9 L49.485,4.9 Z" id="path-7"></path>
        <path d="M47.601,0.865 C43.55,3.816 33.572,12.722 23.874,21.721 C13.016,31.796 2.508,41.986 1.057,44.07 C0.462,44.924 0.679,45.62 1.046,45.955 C1.311,46.198 2.07,46.643 3.393,45.536 C21.781,30.134 44.405,8.366 49.445,2.903 C50.28,1.999 50.141,1.188 49.768,0.769 C49.565,0.542 49.258,0.378 48.866,0.378 C48.508,0.378 48.081,0.514 47.601,0.865 L47.601,0.865 Z M44.094,5.904 C36.367,13.595 21.104,28.046 7.113,40.098 C15.845,31.362 34.311,14.169 44.094,5.904 L44.094,5.904 Z" id="path-9"></path>
        <path d="M40.161,1.604 C36.596,5.127 28.057,15.42 19.809,25.763 C10.574,37.344 1.702,48.988 0.577,51.264 C0.117,52.197 0.435,52.852 0.848,53.13 C1.146,53.33 1.964,53.658 3.106,52.365 C18.993,34.395 38.119,9.497 42.289,3.345 C42.98,2.325 42.722,1.545 42.291,1.187 C42.098,1.026 41.84,0.919 41.538,0.919 C41.14,0.919 40.666,1.106 40.161,1.604 L40.161,1.604 Z M37.446,7.11 C30.951,15.867 18.012,32.431 5.974,46.433 C13.306,36.493 29.004,16.74 37.446,7.11 L37.446,7.11 Z" id="path-11"></path>
        <path d="M32.597,1.843 C29.596,5.857 22.687,17.308 16.072,28.765 C8.666,41.593 1.629,54.429 0.856,56.847 C0.539,57.839 0.951,58.439 1.401,58.652 C1.726,58.806 2.584,59.007 3.52,57.559 C16.552,37.421 31.754,9.952 34.96,3.247 C35.492,2.136 35.12,1.402 34.64,1.113 C34.47,1.01 34.265,0.946 34.04,0.946 C33.603,0.946 33.089,1.185 32.597,1.843 L32.597,1.843 Z M30.731,7.692 C25.615,17.319 15.289,35.627 5.473,51.266 C11.241,40.345 23.82,18.473 30.731,7.692 L30.731,7.692 Z" id="path-13"></path>
        <path d="M24.143,1.731 C21.773,6.149 16.649,18.501 11.815,30.816 C6.403,44.604 1.358,58.345 0.954,60.852 C0.789,61.879 1.286,62.412 1.763,62.555 C2.106,62.66 2.985,62.731 3.695,61.159 C13.58,39.304 24.517,9.876 26.688,2.767 C27.049,1.589 26.572,0.92 26.055,0.705 C25.92,0.649 25.77,0.616 25.612,0.616 C25.136,0.617 24.584,0.908 24.143,1.731 L24.143,1.731 Z M23.17,7.793 C19.545,18.075 12.063,37.717 4.688,54.645 C8.764,42.986 17.942,19.484 23.17,7.793 L23.17,7.793 Z" id="path-15"></path>
        <path d="M15.054,1.383 C13.37,6.105 10.143,19.083 7.199,31.982 C3.903,46.422 0.962,60.762 0.936,63.3 C0.926,64.341 1.497,64.794 1.99,64.865 C2.345,64.915 3.224,64.856 3.693,63.195 C10.209,40.111 16.639,9.382 17.726,2.03 C17.907,0.811 17.336,0.22 16.791,0.084 C16.702,0.062 16.609,0.05 16.513,0.05 C15.998,0.05 15.408,0.395 15.054,1.383 L15.054,1.383 Z M14.997,7.522 C12.944,18.231 8.473,38.769 3.703,56.607 C5.997,44.47 11.569,19.862 14.997,7.522 L14.997,7.522 Z" id="path-17"></path>
        <path d="M5.603,1.876 C4.641,6.795 3.384,20.109 2.395,33.302 C1.288,48.073 0.517,62.691 0.87,65.204 C1.015,66.236 1.647,66.598 2.145,66.595 C2.504,66.592 3.364,66.402 3.579,64.691 C6.584,40.893 8.361,9.548 8.34,2.116 C8.338,0.884 7.684,0.385 7.126,0.332 C7.09,0.328 7.054,0.326 7.017,0.326 C6.461,0.327 5.826,0.729 5.603,1.876 L5.603,1.876 Z M6.459,7.955 C6.026,18.848 4.667,39.824 2.608,58.174 C3.066,45.83 4.91,20.667 6.459,7.955 L6.459,7.955 Z" id="path-19"></path>
        <path d="M1.341,0.486 C0.76,0.518 0.119,0.996 0.065,2.24 C-0.154,7.248 0.589,20.601 1.577,33.794 C2.684,48.564 4.1,63.134 4.824,65.567 C5.121,66.565 5.799,66.829 6.292,66.752 C6.646,66.696 7.468,66.379 7.427,64.656 C6.85,40.676 3.937,9.416 2.808,2.07 C2.627,0.895 1.951,0.485 1.401,0.485 C1.381,0.485 1.361,0.485 1.341,0.486 L1.341,0.486 Z M1.818,8.124 C3.013,18.961 4.795,39.904 5.494,58.355 C4.108,46.082 2.181,20.925 1.818,8.124 L1.818,8.124 Z" id="path-21"></path>
        <path d="M1.722,0.545 C1.152,0.663 0.589,1.23 0.721,2.47 C1.251,7.454 3.976,20.547 6.919,33.445 C10.215,47.886 13.787,62.081 14.866,64.38 C15.308,65.322 16.019,65.482 16.494,65.332 C16.836,65.224 17.602,64.788 17.303,63.09 C13.159,39.464 5.619,8.988 3.409,1.892 C3.091,0.871 2.468,0.521 1.95,0.521 C1.871,0.521 1.795,0.53 1.722,0.545 L1.722,0.545 Z M3.332,8.025 C6.128,18.564 11.012,39.007 14.454,57.149 C11.254,45.219 5.598,20.63 3.332,8.025 L3.332,8.025 Z" id="path-23"></path>
        <path d="M1.55,0.461 C1.004,0.663 0.533,1.308 0.848,2.514 C2.116,7.363 6.76,19.904 11.594,32.22 C17.005,46.008 22.653,59.512 24.061,61.625 C24.64,62.49 25.366,62.543 25.814,62.323 C26.136,62.165 26.828,61.621 26.28,59.986 C18.66,37.241 6.662,8.229 3.419,1.542 C3.004,0.685 2.429,0.391 1.946,0.391 C1.804,0.391 1.67,0.416 1.55,0.461 L1.55,0.461 Z M4.258,7.618 C8.594,17.622 16.47,37.109 22.577,54.535 C17.634,43.216 8.377,19.745 4.258,7.618 L4.258,7.618 Z" id="path-25"></path>
        <path d="M1.099,0.148 C0.589,0.428 0.219,1.137 0.709,2.282 C2.686,6.889 9.148,18.597 15.762,30.055 C23.169,42.882 30.766,55.394 32.474,57.273 C33.175,58.043 33.901,57.986 34.311,57.703 C34.606,57.498 35.209,56.857 34.423,55.321 C23.5,33.967 7.312,7.067 3.108,0.938 C2.635,0.249 2.105,0.006 1.66,0.006 C1.449,0.006 1.257,0.061 1.099,0.148 L1.099,0.148 Z M4.842,6.821 C10.621,16.067 21.313,34.163 29.95,50.484 C23.376,40.028 10.723,18.198 4.842,6.821 L4.842,6.821 Z" id="path-27"></path>
        <path d="M0.623,0.477 C0.16,0.831 -0.101,1.587 0.555,2.646 C3.197,6.906 11.331,17.521 19.58,27.865 C28.815,39.445 38.192,50.686 40.162,52.288 C40.969,52.945 41.679,52.781 42.042,52.44 C42.303,52.194 42.804,51.469 41.798,50.068 C27.814,30.581 7.797,6.394 2.726,0.96 C2.234,0.432 1.749,0.24 1.343,0.24 C1.055,0.24 0.807,0.336 0.623,0.477 L0.623,0.477 Z M5.319,6.519 C12.411,14.8 25.681,31.101 36.653,45.952 C28.594,36.592 12.829,16.892 5.319,6.519 L5.319,6.519 Z" id="path-29"></path>
        <path d="M0.355,1.286 C-0.049,1.706 -0.194,2.492 0.613,3.441 C3.859,7.261 13.486,16.544 23.183,25.542 C34.042,35.617 44.989,45.334 47.174,46.626 C48.072,47.155 48.749,46.887 49.056,46.496 C49.279,46.214 49.666,45.423 48.462,44.187 C31.73,27.001 8.331,6.067 2.507,1.45 C2.032,1.073 1.598,0.93 1.232,0.93 C0.856,0.93 0.553,1.082 0.355,1.286 L0.355,1.286 Z M5.9,6.561 C14.147,13.692 29.698,27.833 42.762,40.883 C33.397,32.829 14.873,15.699 5.9,6.561 L5.9,6.561 Z" id="path-31"></path>
        <path d="M0.505,1.379 C0.167,1.853 0.141,2.653 1.081,3.471 C4.86,6.764 15.762,14.509 26.693,21.962 C38.931,30.306 51.205,38.283 53.559,39.234 C54.525,39.624 55.154,39.257 55.4,38.824 C55.578,38.512 55.842,37.673 54.469,36.63 C35.361,22.13 9.104,4.918 2.658,1.22 C2.234,0.976 1.858,0.879 1.54,0.879 C1.055,0.879 0.701,1.103 0.505,1.379 L0.505,1.379 Z M6.773,5.768 C15.991,11.59 33.476,23.255 48.339,34.213 C37.879,27.644 17.008,13.466 6.773,5.768 L6.773,5.768 Z" id="path-33"></path>
        <path d="M0.246,1.528 C-0.017,2.048 0.077,2.841 1.127,3.511 C5.355,6.204 17.29,12.238 29.21,17.979 C42.555,24.404 55.881,30.463 58.35,31.053 C59.363,31.295 59.931,30.839 60.11,30.374 C60.238,30.038 60.375,29.169 58.861,28.343 C37.806,16.853 9.278,3.746 2.351,1.05 C2.011,0.918 1.709,0.862 1.447,0.862 C0.826,0.862 0.425,1.176 0.246,1.528 L0.246,1.528 Z M7.099,4.934 C17.082,9.318 36.11,18.247 52.44,26.866 C41.118,21.93 18.367,11.021 7.099,4.934 L7.099,4.934 Z" id="path-35"></path>
        <path d="M0.72,1.487 C0.537,2.039 0.747,2.811 1.887,3.315 C6.468,5.348 19.169,9.536 31.812,13.436 C45.965,17.802 60.044,21.806 62.574,22.021 C63.612,22.109 64.105,21.574 64.213,21.088 C64.291,20.737 64.296,19.857 62.676,19.265 C40.144,11.041 9.98,2.333 2.73,0.699 C2.504,0.648 2.299,0.626 2.113,0.626 C1.307,0.626 0.863,1.054 0.72,1.487 L0.72,1.487 Z M8.004,3.833 C18.527,6.68 38.675,12.672 56.107,18.762 C44.175,15.569 20.053,8.172 8.004,3.833 L8.004,3.833 Z" id="path-37"></path>
        <path d="M0.025,1.985 C-0.073,2.559 0.251,3.29 1.452,3.62 C6.285,4.947 19.468,7.195 32.551,9.167 C47.197,11.375 61.717,13.236 64.25,13.072 C65.289,13.005 65.698,12.402 65.731,11.905 C65.756,11.546 65.63,10.674 63.94,10.331 C40.433,5.558 9.309,1.442 1.896,0.908 C1.815,0.902 1.737,0.899 1.662,0.899 C0.597,0.899 0.114,1.469 0.025,1.985 L0.025,1.985 Z M7.577,3.22 C18.409,4.466 39.224,7.389 57.369,10.813 C45.094,9.433 20.139,5.715 7.577,3.22 L7.577,3.22 Z" id="path-39"></path>
    </defs>
    <g id="Page-1" stroke="none" stroke-width="1" fill="none" fill-rule="evenodd">
        <g id="Tablet" transform="translate(-300.000000, -98.000000)">
            <g id="Header">
                <g id="Logo" transform="translate(300.000000, 98.000000)">
                    <g id="Slinky-Copy">
                        <path d="M7.8761,87.0381 C20.6691,87.6331 45.9001,87.5911 58.2431,87.1251 C39.7901,86.4441 18.7721,86.6561 7.8761,87.0381 M33.4571,89.1971 C20.2271,89.1971 6.8561,88.9391 1.8781,88.3471 C0.6411,88.2001 0.2131,87.5251 0.2241,86.9431 C0.2361,86.3821 0.6851,85.6941 1.9131,85.5991 C9.3231,85.0221 40.7131,84.4531 64.6691,85.6701 C66.3911,85.7571 66.6451,86.6001 66.6751,86.9581 C66.7151,87.4551 66.4011,88.1121 65.3841,88.3341 C62.9031,88.8731 48.2691,89.1971 33.4571,89.1971" id="Fill-1" fill="#F08784"></path>
                        <g id="Group-5" transform="translate(0.000000, 84.196900)">
                            <mask id="mask-2" fill="white">
                                <use xlink:href="#path-1"></use>
                            </mask>
                            <g id="Clip-4"></g>
                            <polygon id="Fill-3" fill="#F08784" mask="url(#mask-2)" points="-4.776 10 71.678 10 71.678 -4.247 -4.776 -4.247"></polygon>
                        </g>
                        <path d="M159.862,61.8695 C147.462,65.0715 123.365,72.5485 111.707,76.6315 C129.541,71.8435 149.563,65.4465 159.862,61.8695 M134.781,67.3465 C147.424,63.4465 160.277,59.7525 165.207,58.8505 C166.433,58.6265 167.041,59.1455 167.202,59.7055 C167.356,60.2445 167.13,61.0345 165.984,61.4875 C159.073,64.2215 129.246,74.0185 105.996,79.9165 C104.324,80.3415 103.833,79.6105 103.699,79.2765 C103.514,78.8145 103.621,78.0935 104.527,77.5825 C106.739,76.3355 120.628,71.7125 134.781,67.3465" id="Fill-6" fill="#F08784"></path>
                        <g id="Group-10" transform="translate(103.000000, 58.196900)">
                            <mask id="mask-4" fill="white">
                                <use xlink:href="#path-3"></use>
                            </mask>
                            <g id="Clip-9"></g>
                            <polygon id="Fill-8" fill="#F08784" mask="url(#mask-4)" points="71.0412 6.717 -2.0158 29.252 -6.2158 15.638 66.8422 -6.897"></polygon>
                        </g>
                        <path d="M155.4517,51.0945 C143.6667,56.1085 120.9537,67.0945 110.0347,72.8695 C126.9557,65.4765 145.8007,56.1665 155.4517,51.0945 M131.4677,60.2485 C143.3877,54.5085 155.5467,48.9395 160.2877,47.3125 C161.4657,46.9085 162.1447,47.3305 162.3867,47.8605 C162.6197,48.3705 162.5137,49.1855 161.4487,49.8045 C155.0227,53.5385 126.9877,67.6705 104.8767,76.9685 C103.2867,77.6375 102.6927,76.9875 102.5107,76.6775 C102.2587,76.2485 102.2567,75.5205 103.0767,74.8785 C105.0777,73.3165 118.1227,66.6755 131.4677,60.2485" id="Fill-11" fill="#F08784"></path>
                        <g id="Group-15" transform="translate(102.000000, 46.196900)">
                            <mask id="mask-6" fill="white">
                                <use xlink:href="#path-5"></use>
                            </mask>
                            <g id="Clip-14"></g>
                            <polygon id="Fill-13" fill="#F08784" mask="url(#mask-6)" points="67.9263 5.7947 -0.9567 38.9667 -7.1377 26.1307 61.7443 -7.0413"></polygon>
                        </g>
                        <path d="M149.4847,41.0972 C138.5787,47.8122 117.7567,62.0602 107.8207,69.3972 C123.4507,59.5652 140.6967,47.5502 149.4847,41.0972 M127.1327,53.7232 C138.0637,46.2712 149.2567,38.9522 153.7027,36.6372 C154.8077,36.0612 155.5417,36.3782 155.8607,36.8652 C156.1667,37.3352 156.1837,38.1572 155.2227,38.9272 C149.4247,43.5772 123.8097,61.7312 103.3307,74.2202 C101.8587,75.1182 101.1737,74.5652 100.9477,74.2852 C100.6347,73.8982 100.5247,73.1782 101.2397,72.4222 C102.9857,70.5782 114.8947,62.0672 127.1327,53.7232" id="Fill-16" fill="#F08784"></path>
                        <g id="Group-20" transform="translate(100.000000, 36.196900)">
                            <mask id="mask-8" fill="white">
                                <use xlink:href="#path-7"></use>
                            </mask>
                            <g id="Clip-19"></g>
                            <polygon id="Fill-18" fill="#F08784" mask="url(#mask-8)" points="63.9313 3.6301 0.7623 46.6981 -7.2637 34.9261 55.9053 -8.1419"></polygon>
                        </g>
                        <path d="M142.0943,32.1009 C132.3113,40.3659 113.8453,57.5579 105.1133,66.2949 C119.1033,54.2429 134.3663,39.7919 142.0943,32.1009 M121.8743,47.9179 C131.5723,38.9189 141.5493,30.0139 145.6003,27.0619 C146.6073,26.3279 147.3803,26.5319 147.7683,26.9659 C148.1413,27.3849 148.2803,28.1949 147.4443,29.0999 C142.4043,34.5629 119.7813,56.3309 101.3923,71.7329 C100.0713,72.8399 99.3113,72.3949 99.0463,72.1529 C98.6793,71.8159 98.4623,71.1209 99.0573,70.2659 C100.5083,68.1839 111.0163,57.9919 121.8743,47.9179" id="Fill-21" fill="#F08784"></path>
                        <g id="Group-25" transform="translate(98.000000, 26.196900)">
                            <mask id="mask-10" fill="white">
                                <use xlink:href="#path-9"></use>
                            </mask>
                            <g id="Clip-24"></g>
                            <polygon id="Fill-23" fill="#F08784" mask="url(#mask-10)" points="58.1902 2.4948 2.1452 54.4968 -7.5448 44.0528 48.4992 -7.9492"></polygon>
                        </g>
                        <path d="M133.4457,24.3066 C125.0037,33.9376 109.3057,53.6896 101.9747,63.6306 C114.0117,49.6286 126.9507,33.0636 133.4457,24.3066 M115.8087,42.9606 C124.0577,32.6166 132.5957,22.3236 136.1617,18.8016 C137.0487,17.9256 137.8427,18.0116 138.2907,18.3836 C138.7217,18.7416 138.9807,19.5226 138.2887,20.5416 C134.1197,26.6946 114.9927,51.5916 99.1057,69.5616 C97.9637,70.8546 97.1457,70.5276 96.8477,70.3266 C96.4347,70.0496 96.1167,69.3936 96.5767,68.4606 C97.7017,66.1846 106.5737,54.5406 115.8087,42.9606" id="Fill-26" fill="#F08784"></path>
                        <g id="Group-30" transform="translate(96.000000, 17.196900)">
                            <mask id="mask-12" fill="white">
                                <use xlink:href="#path-11"></use>
                            </mask>
                            <g id="Clip-29"></g>
                            <polygon id="Fill-28" fill="#F08784" mask="url(#mask-12)" points="50.876 1.6376 3.208 61.4116 -7.931 52.5286 39.737 -7.2454"></polygon>
                        </g>
                        <path d="M123.7319,17.8883 C116.8199,28.6703 104.2409,50.5413 98.4729,61.4633 C108.2889,45.8233 118.6149,27.5153 123.7319,17.8883 M109.0719,38.9623 C115.6869,27.5053 122.5959,16.0543 125.5969,12.0393 C126.3429,11.0413 127.1419,11.0083 127.6399,11.3093 C128.1199,11.5993 128.4919,12.3323 127.9599,13.4443 C124.7539,20.1493 109.5519,47.6183 96.5199,67.7563 C95.5839,69.2043 94.7269,69.0033 94.4019,68.8493 C93.9519,68.6363 93.5399,68.0353 93.8559,67.0433 C94.6289,64.6253 101.6659,51.7903 109.0719,38.9623" id="Fill-31" fill="#F08784"></path>
                        <g id="Group-35" transform="translate(93.000000, 10.196900)">
                            <mask id="mask-14" fill="white">
                                <use xlink:href="#path-13"></use>
                            </mask>
                            <g id="Clip-34"></g>
                            <polygon id="Fill-33" fill="#F08784" mask="url(#mask-14)" points="43.1967 0.2788 4.9697 66.4898 -7.3683 59.3658 30.8577 -6.8452"></polygon>
                        </g>
                        <path d="M113.1701,12.9895 C107.9421,24.6805 98.7641,48.1825 94.6881,59.8425 C102.0631,42.9145 109.5451,23.2715 113.1701,12.9895 M101.8151,36.0135 C106.6481,23.6975 111.7731,11.3455 114.1431,6.9285 C114.7321,5.8305 115.5161,5.6775 116.0541,5.9015 C116.5721,6.1165 117.0481,6.7865 116.6881,7.9645 C114.5181,15.0725 103.5801,44.5015 93.6951,66.3565 C92.9841,67.9275 92.1071,67.8565 91.7631,67.7525 C91.2861,67.6095 90.7891,67.0765 90.9541,66.0485 C91.3581,63.5425 96.4031,49.8015 101.8151,36.0135" id="Fill-36" fill="#F08784"></path>
                        <g id="Group-40" transform="translate(90.000000, 5.196900)">
                            <mask id="mask-16" fill="white">
                                <use xlink:href="#path-15"></use>
                            </mask>
                            <g id="Clip-39"></g>
                            <polygon id="Fill-38" fill="#F08784" mask="url(#mask-16)" points="34.3908 -1.3951 6.4588 69.7739 -6.8032 64.5689 21.1288 -6.6001"></polygon>
                        </g>
                        <path d="M101.9961,9.7195 C98.5691,22.0595 92.9961,46.6665 90.7031,58.8035 C95.4731,40.9655 99.9441,20.4275 101.9961,9.7195 M94.1991,34.1785 C97.1431,21.2805 100.3701,8.3015 102.0541,3.5805 C102.4731,2.4075 103.2261,2.1395 103.7911,2.2805 C104.3361,2.4165 104.9071,3.0075 104.7261,4.2265 C103.6391,11.5785 97.2091,42.3085 90.6921,65.3925 C90.2241,67.0525 89.3451,67.1125 88.9901,67.0615 C88.4971,66.9905 87.9261,66.5385 87.9361,65.4975 C87.9621,62.9585 90.9031,48.6185 94.1991,34.1785" id="Fill-41" fill="#F08784"></path>
                        <g id="Group-45" transform="translate(87.000000, 2.196900)">
                            <mask id="mask-18" fill="white">
                                <use xlink:href="#path-17"></use>
                            </mask>
                            <g id="Clip-44"></g>
                            <polygon id="Fill-43" fill="#F08784" mask="url(#mask-18)" points="24.7222 -3.2348 7.7092 71.3022 -6.1808 68.1322 10.8322 -6.4048"></polygon>
                        </g>
                        <path d="M90.4595,8.1515 C88.9095,20.8645 87.0665,46.0275 86.6085,58.3705 C88.6665,40.0205 90.0265,19.0455 90.4595,8.1515 M86.3955,33.4995 C87.3835,20.3065 88.6405,6.9915 89.6025,2.0725 C89.8415,0.8495 90.5465,0.4735 91.1265,0.5285 C91.6845,0.5815 92.3375,1.0805 92.3405,2.3125 C92.3615,9.7445 90.5835,41.0895 87.5795,64.8875 C87.3635,66.5985 86.5045,66.7895 86.1445,66.7915 C85.6475,66.7945 85.0155,66.4325 84.8695,65.4015 C84.5175,62.8875 85.2885,48.2695 86.3955,33.4995" id="Fill-46" fill="#F08784"></path>
                        <g id="Group-50" transform="translate(84.000000, 0.196900)">
                            <mask id="mask-20" fill="white">
                                <use xlink:href="#path-19"></use>
                            </mask>
                            <g id="Clip-49"></g>
                            <polygon id="Fill-48" fill="#F08784" mask="url(#mask-20)" points="14.4737 -4.1322 8.7607 72.1078 -5.4473 71.0428 0.2657 -5.1972"></polygon>
                        </g>
                        <path d="M78.8181,8.3204 C79.1801,21.1224 81.1081,46.2794 82.4951,58.5524 C81.7951,40.1014 80.0131,19.1574 78.8181,8.3204 M78.5771,33.9904 C77.5881,20.7974 76.8461,7.4454 77.0641,2.4374 C77.1191,1.1924 77.7601,0.7144 78.3411,0.6834 C78.9011,0.6524 79.6211,1.0484 79.8081,2.2664 C80.9361,9.6124 83.8501,40.8724 84.4261,64.8524 C84.4681,66.5764 83.6461,66.8924 83.2911,66.9484 C82.8001,67.0264 82.1211,66.7624 81.8241,65.7644 C81.1001,63.3304 79.6841,48.7614 78.5771,33.9904" id="Fill-51" fill="#F08784"></path>
                        <g id="Group-55" transform="translate(77.000000, 0.196900)">
                            <mask id="mask-22" fill="white">
                                <use xlink:href="#path-21"></use>
                            </mask>
                            <g id="Clip-54"></g>
                            <polygon id="Fill-53" fill="#F08784" mask="url(#mask-22)" points="7.9413 -5.0228 13.6543 71.2172 -0.5527 72.2822 -6.2667 -3.9578"></polygon>
                        </g>
                        <path d="M67.3319,10.2225 C69.5979,22.8275 75.2539,47.4155 78.4539,59.3455 C75.0119,41.2045 70.1289,20.7605 67.3319,10.2225 M70.9199,35.6425 C67.9759,22.7435 65.2519,9.6505 64.7209,4.6665 C64.5889,3.4275 65.1519,2.8595 65.7219,2.7415 C66.2709,2.6275 67.0419,2.9125 67.4079,4.0885 C69.6189,11.1845 77.1589,41.6615 81.3029,65.2865 C81.6019,66.9855 80.8359,67.4205 80.4939,67.5295 C80.0189,67.6795 79.3079,67.5195 78.8659,66.5765 C77.7869,64.2785 74.2149,50.0825 70.9199,35.6425" id="Fill-56" fill="#F08784"></path>
                        <g id="Group-60" transform="translate(64.000000, 2.196900)">
                            <mask id="mask-24" fill="white">
                                <use xlink:href="#path-23"></use>
                            </mask>
                            <g id="Clip-59"></g>
                            <polygon id="Fill-58" fill="#F08784" mask="url(#mask-24)" points="7.4273 -5.8865 24.4403 68.6505 10.5493 71.8205 -6.4627 -2.7165"></polygon>
                        </g>
                        <path d="M56.2574,13.8153 C60.3774,25.9413 69.6344,49.4123 74.5774,60.7323 C68.4694,43.3063 60.5934,23.8183 56.2574,13.8153 M63.5934,38.4163 C58.7604,26.1013 54.1154,13.5603 52.8474,8.7103 C52.5324,7.5053 53.0044,6.8593 53.5504,6.6573 C54.0764,6.4633 54.8814,6.6303 55.4184,7.7383 C58.6624,14.4263 70.6604,43.4383 78.2794,66.1823 C78.8274,67.8173 78.1354,68.3623 77.8134,68.5203 C77.3664,68.7393 76.6394,68.6873 76.0614,67.8213 C74.6524,65.7093 69.0044,52.2043 63.5934,38.4163" id="Fill-61" fill="#F08784"></path>
                        <g id="Group-65" transform="translate(52.000000, 6.196900)">
                            <mask id="mask-26" fill="white">
                                <use xlink:href="#path-25"></use>
                            </mask>
                            <g id="Clip-64"></g>
                            <polygon id="Fill-63" fill="#F08784" mask="url(#mask-26)" points="6.2337 -6.7487 34.1657 64.4203 20.9027 69.6253 -7.0283 -1.5437"></polygon>
                        </g>
                        <path d="M45.8422,19.0185 C51.7232,30.3955 64.3752,52.2245 70.9502,62.6805 C62.3132,46.3605 51.6212,28.2635 45.8422,19.0185 M56.7632,42.2515 C50.1482,30.7935 43.6862,19.0855 41.7092,14.4785 C41.2182,13.3335 41.5892,12.6255 42.0992,12.3445 C42.5902,12.0735 43.4102,12.1185 44.1072,13.1345 C48.3112,19.2635 64.4992,46.1635 75.4232,67.5185 C76.2092,69.0535 75.6062,69.6955 75.3102,69.8995 C74.9012,70.1825 74.1752,70.2395 73.4742,69.4695 C71.7662,67.5915 64.1692,55.0785 56.7632,42.2515" id="Fill-66" fill="#F08784"></path>
                        <g id="Group-70" transform="translate(41.000000, 12.196900)">
                            <mask id="mask-28" fill="white">
                                <use xlink:href="#path-27"></use>
                            </mask>
                            <g id="Clip-69"></g>
                            <polygon id="Fill-68" fill="#F08784" mask="url(#mask-28)" points="4.655 -7.6796 42.882 58.5314 30.543 65.6554 -7.684 -0.5556"></polygon>
                        </g>
                        <path d="M36.3188,25.7159 C43.8298,36.0889 59.5938,55.7889 67.6538,65.1489 C56.6808,50.2969 43.4108,33.9969 36.3188,25.7159 M50.5798,47.0619 C42.3318,36.7179 34.1968,26.1029 31.5558,21.8429 C30.8998,20.7839 31.1598,20.0279 31.6228,19.6739 C32.0678,19.3339 32.8858,19.2559 33.7268,20.1569 C38.7968,25.5909 58.8138,49.7769 72.7978,69.2659 C73.8038,70.6659 73.3028,71.3909 73.0418,71.6369 C72.6788,71.9779 71.9688,72.1419 71.1618,71.4849 C69.1928,69.8819 59.8148,58.6419 50.5798,47.0619" id="Fill-71" fill="#F08784"></path>
                        <g id="Group-75" transform="translate(31.000000, 19.196900)">
                            <mask id="mask-30" fill="white">
                                <use xlink:href="#path-29"></use>
                            </mask>
                            <g id="Clip-74"></g>
                            <polygon id="Fill-73" fill="#F08784" mask="url(#mask-30)" points="2.9724 -7.7923 50.6404 51.9817 39.5014 60.8647 -8.1666 1.0907"></polygon>
                        </g>
                        <path d="M27.8999,33.7579 C36.8729,42.8959 55.3969,60.0259 64.7619,68.0799 C51.6979,55.0299 36.1469,40.8889 27.8999,33.7579 M45.1839,52.7399 C35.4849,43.7409 25.8589,34.4569 22.6129,30.6379 C21.8059,29.6889 21.9509,28.9029 22.3559,28.4839 C22.7449,28.0799 23.5429,27.8809 24.5079,28.6469 C30.3319,33.2649 53.7299,54.1979 70.4619,71.3839 C71.6659,72.6189 71.2789,73.4099 71.0569,73.6929 C70.7489,74.0839 70.0709,74.3519 69.1749,73.8229 C66.9889,72.5309 56.0409,62.8139 45.1839,52.7399" id="Fill-76" fill="#F08784"></path>
                        <g id="Group-80" transform="translate(22.000000, 27.196900)">
                            <mask id="mask-32" fill="white">
                                <use xlink:href="#path-31"></use>
                            </mask>
                            <g id="Clip-79"></g>
                            <polygon id="Fill-78" fill="#F08784" mask="url(#mask-32)" points="1.4468 -7.2408 57.4918 44.7612 47.8008 55.2052 -8.2442 3.2032"></polygon>
                        </g>
                        <path d="M20.7736,42.9648 C31.0086,50.6628 51.8786,64.8408 62.3396,71.4098 C47.4766,60.4518 29.9916,48.7868 20.7736,42.9648 M40.6936,59.1588 C29.7616,51.7058 18.8596,43.9608 15.0806,40.6678 C14.1416,39.8488 14.1676,39.0498 14.5056,38.5758 C14.8306,38.1188 15.5896,37.8028 16.6576,38.4168 C23.1046,42.1148 49.3606,59.3268 68.4686,73.8268 C69.8426,74.8688 69.5776,75.7088 69.3996,76.0218 C69.1536,76.4538 68.5246,76.8198 67.5586,76.4308 C65.2056,75.4788 52.9316,67.5028 40.6936,59.1588" id="Fill-81" fill="#F08784"></path>
                        <g id="Group-85" transform="translate(14.000000, 37.196900)">
                            <mask id="mask-34" fill="white">
                                <use xlink:href="#path-33"></use>
                            </mask>
                            <g id="Clip-84"></g>
                            <polygon id="Fill-83" fill="#F08784" mask="url(#mask-34)" points="0.3132 -7.216 63.4822 35.852 55.4562 47.624 -7.7128 4.556"></polygon>
                        </g>
                        <path d="M15.0992,53.131 C26.3672,59.218 49.1172,70.127 60.4402,75.063 C44.1102,66.443 25.0822,57.515 15.0992,53.131 M37.2102,66.175 C25.2902,60.435 13.3552,54.401 9.1272,51.708 C8.0762,51.039 7.9832,50.245 8.2462,49.725 C8.5002,49.225 9.2032,48.8 10.3512,49.247 C17.2772,51.943 45.8062,65.05 66.8612,76.54 C68.3752,77.366 68.2382,78.236 68.1092,78.571 C67.9302,79.036 67.3622,79.491 66.3502,79.25 C63.8802,78.66 50.5552,72.602 37.2102,66.175" id="Fill-86" fill="#F08784"></path>
                        <g id="Group-90" transform="translate(8.000000, 48.196900)">
                            <mask id="mask-36" fill="white">
                                <use xlink:href="#path-35"></use>
                            </mask>
                            <g id="Clip-89"></g>
                            <polygon id="Fill-88" fill="#F08784" mask="url(#mask-36)" points="-1.2242 -6.9418 67.6588 26.2302 61.4768 39.0672 -7.4062 5.8942"></polygon>
                        </g>
                        <path d="M11.0034,64.0294 C23.0524,68.3694 47.1744,75.7654 59.1064,78.9584 C41.6744,72.8694 21.5274,66.8764 11.0034,64.0294 M34.8114,73.6324 C22.1694,69.7324 9.4684,65.5454 4.8864,63.5124 C3.7474,63.0074 3.5374,62.2364 3.7194,61.6834 C3.8954,61.1504 4.5274,60.6254 5.7294,60.8964 C12.9804,62.5304 43.1434,71.2384 65.6764,79.4624 C67.2964,80.0534 67.2904,80.9334 67.2134,81.2844 C67.1054,81.7704 66.6114,82.3064 65.5744,82.2184 C63.0444,82.0024 48.9654,77.9984 34.8114,73.6324" id="Fill-91" fill="#F08784"></path>
                        <g id="Group-95" transform="translate(3.000000, 60.196900)">
                            <mask id="mask-38" fill="white">
                                <use xlink:href="#path-37"></use>
                            </mask>
                            <g id="Clip-94"></g>
                            <polygon id="Fill-93" fill="#F08784" mask="url(#mask-38)" points="-1.9971 -6.6703 71.0599 15.8647 66.8609 29.4797 -6.1961 6.9437"></polygon>
                        </g>
                        <path d="M8.5776,75.4166 C21.1396,77.9116 46.0946,81.6306 58.3686,83.0096 C40.2236,79.5866 19.4086,76.6626 8.5776,75.4166 M33.5506,81.3636 C20.4686,79.3926 7.2856,77.1446 2.4516,75.8176 C1.2506,75.4876 0.9276,74.7556 1.0256,74.1816 C1.1206,73.6296 1.6666,73.0156 2.8956,73.1046 C10.3086,73.6396 41.4336,77.7546 64.9396,82.5286 C66.6296,82.8716 66.7556,83.7426 66.7316,84.1016 C66.6976,84.5976 66.2886,85.2006 65.2496,85.2686 C62.7166,85.4326 48.1976,83.5716 33.5506,81.3636" id="Fill-96" fill="#F08784"></path>
                        <g id="Group-100" transform="translate(1.000000, 72.196900)">
                            <mask id="mask-40" fill="white">
                                <use xlink:href="#path-39"></use>
                            </mask>
                            <g id="Clip-99"></g>
                            <polygon id="Fill-98" fill="#F08784" mask="url(#mask-40)" points="-3.8765 -5.6753 71.7235 5.7197 69.5995 19.8077 -5.9995 8.4127"></polygon>
                        </g>
                    </g>
                    <g id="Text-Copy" transform="translate(34.000000, 100.000000)" fill="#FFEBBD">
                        <path d="M8.88186473,11.2723881 C8.88186473,12.0882189 9.11973627,12.8175622 9.59574306,13.4601542 C10.0714861,14.1027463 10.7017666,14.6994577 11.4871119,15.2492338 C12.2719297,15.7992736 13.1619701,16.3216269 14.157233,16.8157662 C15.1519686,17.3101692 16.1720208,17.8201294 17.2165986,18.3453831 C18.2611763,18.8709005 19.2809648,19.4330697 20.2762278,20.0326816 C21.2709633,20.6322935 22.1610037,21.3089005 22.946349,22.0627662 C23.7311668,22.8166318 24.361711,23.6696418 24.8377178,24.6212687 C25.3134608,25.5731592 25.5515961,26.6605821 25.5515961,27.8843284 C25.5515961,28.996801 25.3722694,30.0196219 25.0138798,30.952791 C24.6552265,31.8862239 24.1636605,32.7234129 23.5397092,33.4648856 C22.9152305,34.2066219 22.1768266,34.8618706 21.3239702,35.4301045 C20.47085,35.9983383 19.5499548,36.4684826 18.5610211,36.8392189 C17.5718236,37.2099552 16.533575,37.4910398 15.4460115,37.6827363 C14.3579207,37.8744328 13.2640281,37.9701493 12.1638063,37.9701493 C10.6184324,37.9701493 9.11657168,37.7816169 7.6579603,37.4045522 C6.19934891,37.0274876 4.90134037,36.4592537 3.76419839,35.6990597 C2.62652898,34.9388657 1.71512762,33.9872388 1.02920315,32.8439154 C0.343014975,31.7008557 -7.91147017e-05,30.362408 -7.91147017e-05,28.8298905 C-7.91147017e-05,28.0391095 0.126504408,27.3437811 0.380198885,26.7441692 C0.63336593,26.1445572 0.948506159,25.6440896 1.32588329,25.2422388 C1.70273298,24.8409154 2.11386572,24.5379453 2.55875405,24.3338557 C3.00390611,24.1300299 3.41793972,24.0279851 3.80111859,24.0279851 C4.1966921,24.0279851 4.52712783,24.1363582 4.79321695,24.3523134 C5.05877863,24.568796 5.19195504,24.9057811 5.19195504,25.363005 C5.19195504,25.5731592 5.16690206,25.7957065 5.11785094,26.0303831 C5.06827239,26.2650597 5.01579297,26.5216219 4.96014897,26.799806 C4.90450496,27.0777264 4.85176183,27.3838607 4.802447,27.7174179 C4.75286845,28.0512388 4.72834289,28.4159104 4.72834289,28.8114328 C4.72834289,29.6765721 4.92586593,30.4243731 5.32170315,31.0545721 C5.71727666,31.6850348 6.24233457,32.2042239 6.89793173,32.6121393 C7.55273774,33.0200547 8.30696457,33.3230249 9.16008477,33.5205224 C10.0129413,33.7182836 10.8966525,33.8171642 11.8114821,33.8171642 C12.8871784,33.8171642 13.9626109,33.6874328 15.0380434,33.4277065 C16.1134759,33.1682438 17.0776204,32.7853781 17.9307406,32.2783184 C18.7835971,31.7715224 19.475587,31.1505522 20.0075015,30.4151443 C20.5386249,29.68 20.804714,28.8362189 20.804714,27.8843284 C20.804714,27.006796 20.5665787,26.2220796 20.0908357,25.5296517 C19.6148289,24.8374876 18.9842847,24.1980597 18.1994669,23.6108408 C17.4141216,23.0238856 16.521444,22.4706816 15.5201156,21.9514925 C14.5187872,21.4323035 13.4989987,20.9070498 12.4604864,20.3754677 C11.4222378,19.8444129 10.4024493,19.2848806 9.40112089,18.6976617 C8.39979248,18.1109701 7.5065875,17.4646866 6.72176966,16.7601294 C5.93642439,16.0558358 5.30588021,15.2676915 4.83040086,14.3964876 C4.35439407,13.5250199 4.11652253,12.5330498 4.11652253,11.4205771 C4.11652253,10.3824627 4.3667887,9.35990547 4.86732105,8.35237811 C5.36811711,7.34485075 6.1218165,6.44279602 7.12947409,5.64542289 C8.13686796,4.84831343 9.394528,4.20255721 10.9029816,3.70815423 C12.4109079,3.21375124 14.178594,2.96641791 16.2060401,2.96641791 C17.491654,2.96641791 18.749314,3.15837811 19.9795477,3.54124378 C21.2095176,3.92437313 22.3065748,4.46808458 23.270983,5.17264179 C24.2351275,5.877199 25.0107153,6.7180796 25.5980101,7.69422886 C26.1847774,8.67064179 26.4788204,9.752 26.4788204,10.9385672 C26.4788204,11.6431244 26.3583023,12.3661393 26.1170025,13.1078756 C25.8759664,13.8493483 25.4896229,14.6219353 24.9582358,15.4253731 C24.4389797,16.2040249 23.8735733,16.7820149 23.2614892,17.1588159 C22.6496688,17.5361443 22.0961296,17.7244129 21.6019265,17.7244129 C21.2311422,17.7244129 20.9281329,17.6163035 20.693426,17.3998209 C20.4584553,17.1838657 20.3411018,16.8592736 20.3411018,16.4265721 C20.3411018,16.1051443 20.415206,15.7251791 20.5636779,15.2864129 C20.7118861,14.8479104 20.9650531,14.3437512 21.3239702,13.7752537 C21.6575705,13.2315423 21.9046721,12.7215821 22.0655386,12.2456368 C22.2261415,11.7702189 22.3065748,11.3280249 22.3065748,10.9201095 C22.3065748,10.2896468 22.1364781,9.73670647 21.7968124,9.26076119 C21.4566191,8.7850796 20.9869415,8.38665672 20.3875158,8.06496517 C19.7875626,7.74353731 19.0678826,7.50253234 18.2274207,7.34195025 C17.3864315,7.18136816 16.4658,7.10094527 15.4644716,7.10094527 C14.3518552,7.10094527 13.3845461,7.22777612 12.5625444,7.48091045 C11.7402789,7.73430846 11.0540907,8.06206468 10.5042435,8.46365174 C9.95413266,8.86523881 9.54616451,9.31349751 9.28060283,9.80763682 C9.01451372,10.3020398 8.88186473,10.7903781 8.88186473,11.2723881" id="Fill-1"></path>
                        <path d="M29.551592,20.7649254 C30.1077683,19.7761194 30.697964,18.6636468 31.3224427,17.4277711 C31.946394,16.1918955 32.5368534,14.9185771 33.0932935,13.6083433 C33.6494698,12.2986368 34.1315421,10.9915672 34.5395102,9.68713433 C34.9474784,8.38322886 35.2069746,7.16871144 35.3182626,6.04410945 C35.3182626,5.68550249 35.3090325,5.37963184 35.2905724,5.12623383 C35.2718486,4.8730995 35.21304,4.74626866 35.1144104,4.74626866 C34.7554933,4.74626866 34.3694136,4.97804478 33.95538,5.44159701 C33.5410827,5.90514925 33.1270491,6.53244776 32.7130155,7.32322886 C32.2987181,8.11427363 31.9031446,9.03557711 31.5262949,10.0858209 C31.1491815,11.1363284 30.8124166,12.2551294 30.5157365,13.4416965 C30.2190564,14.6282637 29.9840857,15.8488458 29.8110882,17.1031791 C29.637827,18.3577761 29.551592,19.5783582 29.551592,20.7649254 M29.5331319,35.5970149 C28.8654038,35.5970149 28.2443534,35.3035373 27.6694532,34.7163184 C27.0948168,34.1296269 26.5940207,33.3414826 26.1675925,32.3524129 C25.7411642,31.363607 25.4073002,30.2176468 25.1662641,28.9132139 C24.9252279,27.6093085 24.8047099,26.240801 24.8047099,24.8066368 C24.8047099,23.7065572 24.8848794,22.5107612 25.045746,21.2192488 C25.2060851,19.9277363 25.4413195,18.5956169 25.7503943,17.2236816 C26.0592053,15.8517463 26.4270887,14.4737463 26.8537807,13.0894179 C27.2802089,11.7053532 27.7622811,10.376398 28.2999974,9.1030796 C28.8377137,7.83028856 29.4218439,6.64055721 30.0521243,5.53414925 C30.6826685,4.42826866 31.3438037,3.46424876 32.0363211,2.64208955 C32.728311,1.81993035 33.4516831,1.17443781 34.2056462,0.704557214 C34.9596093,0.234940299 35.7262307,0 36.5049831,0 C37.0363702,0 37.4751931,0.120502488 37.8214518,0.361507463 C38.1674467,0.602512438 38.4396013,0.920776119 38.637388,1.31629851 C38.8349111,1.71208458 38.9738892,2.15981592 39.0545862,2.66054726 C39.1347558,3.16101493 39.1751043,3.67097512 39.1751043,4.19016418 C39.1751043,5.35194527 39.0421916,6.53534826 38.7763662,7.74037313 C38.5105408,8.94566169 38.1521512,10.1572786 37.7009337,11.3744328 C37.2494525,12.5918507 36.7275591,13.8124328 36.1341989,15.0359154 C35.5408386,16.2596617 34.9224254,17.4741791 34.280014,18.679204 C33.6370752,19.8842289 32.9912355,21.070796 32.3422312,22.2389055 C31.693227,23.4070149 31.0843075,24.5471741 30.5157365,25.6593831 C30.4537633,25.7830498 30.3888892,25.9441592 30.3211143,26.1416567 C30.2530757,26.3394179 30.1882016,26.5524726 30.1264922,26.7810846 C30.0642553,27.0102239 30.0025458,27.2538657 29.9411,27.513592 C29.8788631,27.7730547 29.829812,28.0264527 29.7926281,28.2737861 L29.7926281,28.5332488 C29.7926281,28.8549403 29.8263837,29.1666119 29.8946861,29.4695821 C29.962461,29.7725522 30.0457952,30.0441443 30.1449522,30.2851493 C30.2438456,30.5264179 30.3488045,30.7181144 30.4600925,30.8599751 C30.5713805,31.0020995 30.6763393,31.0732935 30.7754964,31.0732935 C31.0099397,31.0732935 31.2789296,31.0239851 31.5819389,30.9248408 C31.8846845,30.8259602 32.2058902,30.6930647 32.5460834,30.5264179 C32.8860129,30.3595075 33.2351725,30.1678109 33.5938258,29.951592 C33.9522154,29.7356368 34.2984741,29.51599 34.6323381,29.2934428 C35.4110905,28.7742537 36.2267631,28.1749055 37.0798833,27.4948706 L38.6004679,31.388393 C37.4999824,32.1794378 36.4124189,32.883995 35.3367227,33.5020647 C34.8667814,33.7615274 34.3818082,34.0183532 33.8812759,34.2714876 C33.3807435,34.5248856 32.8767829,34.750597 32.3701851,34.9480945 C31.8630599,35.1458557 31.3688567,35.3035373 30.8865207,35.4208756 C30.4044485,35.5384776 29.9529672,35.5970149 29.5331319,35.5970149" id="Fill-4"></path>
                        <path d="M39.0453562,12.5887393 C39.0453562,12.3044905 39.1070657,11.9833264 39.2307483,11.6247194 C39.3541672,11.2661124 39.5553823,10.929391 39.8333386,10.6142915 C40.1115587,10.2989284 40.4823429,10.033401 40.945955,9.81691841 C41.4095672,9.60096318 41.9871045,9.49259005 42.6796219,9.49259005 C43.1121156,9.49259005 43.5200837,9.54189851 43.9035263,9.6407791 C44.2864415,9.73992338 44.6203055,9.89127662 44.9048547,10.0951025 C45.1888765,10.2989284 45.4146171,10.5678836 45.5815491,10.9017045 C45.7484812,11.2352617 45.8318153,11.6310478 45.8318153,12.0882716 C45.8318153,12.5083164 45.7637767,12.9162318 45.6279631,13.3117542 C45.4916221,13.7075403 45.275639,14.0598189 44.9789588,14.36859 C44.6822787,14.6776249 44.3083299,14.9278587 43.8571124,15.1195552 C43.4056311,15.3112517 42.865014,15.4069682 42.2347335,15.4069682 C41.1466427,15.4069682 40.3433647,15.150406 39.8241086,14.6375453 C39.3048524,14.1246846 39.0453562,13.4414856 39.0453562,12.5887393 L39.0453562,12.5887393 Z M47.3339398,31.6479085 C46.8887877,32.0558239 46.3355122,32.4914259 45.6743771,32.9549781 C45.0127144,33.4185303 44.2988361,33.8449035 43.5327421,34.2343612 C42.7658569,34.6235552 41.9844674,34.9481473 41.1869912,35.20761 C40.3897787,35.4673363 39.6323873,35.5970677 38.9156081,35.5970677 C38.2726693,35.5970677 37.7317884,35.5074159 37.2929655,35.3281124 C36.8541427,35.1493363 36.4986539,34.8988388 36.2267631,34.5774109 C35.9548722,34.2559831 35.7599863,33.8636249 35.6428966,33.4000726 C35.5250157,32.9365204 35.4667345,32.4265602 35.4667345,31.8704557 C35.4667345,31.091804 35.5561341,30.1863214 35.7354608,29.1542716 C35.9145237,28.1224856 36.1341989,27.052993 36.3936951,25.9468488 C36.653455,24.8409682 36.9282468,23.7377244 37.2188614,22.6373811 C37.5092124,21.5375652 37.7658078,20.5239731 37.9883838,19.5968687 C38.0746188,19.2754408 38.2481437,19.0006846 38.5076399,18.771809 C38.7671362,18.543197 39.0606517,18.3578289 39.3884503,18.2157045 C39.7157214,18.0738438 40.0559146,17.9683711 40.4082388,17.900605 C40.7605629,17.8328388 41.078604,17.7985602 41.3631532,17.7985602 C41.8824094,17.7985602 42.2347335,17.8942766 42.4201257,18.0859731 C42.6055178,18.2776697 42.6983457,18.5339682 42.6983457,18.855396 C42.6983457,19.1272517 42.6361088,19.5198736 42.5126899,20.0324706 C42.3890072,20.545595 42.2347335,21.1264856 42.0493414,21.775406 C41.8639493,22.4243264 41.6658988,23.1225552 41.4559812,23.8703562 C41.245536,24.6184209 41.048013,25.3659582 40.8626209,26.1137592 C40.6769651,26.8618239 40.5224277,27.5909035 40.3990087,28.3015254 C40.2753261,29.0124109 40.2136166,29.6521025 40.2136166,30.2203363 C40.2136166,30.7767045 40.2753261,31.2186348 40.3990087,31.5461274 C40.5224277,31.8736199 40.7758584,32.0373662 41.159301,32.0373662 C41.6041894,32.0373662 42.0983925,31.8828488 42.6427017,31.5738139 C43.1864834,31.2650428 43.7365943,30.8908786 44.2927706,30.4521124 C44.8492107,30.01361 45.3929924,29.5592866 45.9246432,29.089406 C46.4560303,28.6197891 46.9259716,28.2179383 47.3339398,27.8843811 L47.3339398,31.6479085 Z" id="Fill-6"></path>
                        <path d="M46.0173393,31.7221348 C46.0173393,30.906304 46.0666541,29.963906 46.1655475,28.8946771 C46.2644409,27.8259756 46.3881235,26.7380254 46.5365954,25.6316174 C46.6848036,24.5257368 46.8517357,23.4596721 47.0371278,22.4334234 C47.2225199,21.407702 47.4015828,20.5304333 47.574844,19.8008264 C47.7106576,19.2325925 47.9735821,18.7563836 48.3630902,18.3732542 C48.7523345,17.9903886 49.2808207,17.7984284 49.9482851,17.7984284 C50.6157495,17.7984284 51.0793616,18.0025179 51.3391216,18.4104333 C51.5986178,18.8180851 51.7283659,19.3623239 51.7283659,20.0418313 C51.7283659,20.2271995 51.7099058,20.4774333 51.6727219,20.7927965 C51.6358017,21.107896 51.5893877,21.45411 51.5337437,21.8309109 C51.4780997,22.2082393 51.4192911,22.597697 51.3575816,22.9990204 C51.2956085,23.4006075 51.2370636,23.7716075 51.1814196,24.111493 C51.1257756,24.4516423 51.0793616,24.7482841 51.0424414,25.0014184 C51.0052575,25.2548164 50.9867974,25.424891 50.9867974,25.5111149 L51.3575816,25.5111149 C51.4316858,25.3753189 51.5490392,25.1561995 51.7099058,24.8529657 C51.8702449,24.5502592 52.055637,24.2014085 52.2660821,23.8056224 C52.4762635,23.4101 52.7020041,22.9929557 52.9430403,22.5539259 C53.1840764,22.1154234 53.4092896,21.6951149 53.6197347,21.2932642 C53.8299161,20.8919408 54.0213737,20.5362343 54.1946349,20.2271995 C54.3676323,19.9184284 54.4973804,19.6895527 54.5838792,19.5413637 C54.9794527,18.8737219 55.4304065,18.4167617 55.9375317,18.1694284 C56.4443933,17.922095 57.0066351,17.7984284 57.6250483,17.7984284 C58.2429341,17.7984284 58.7342364,18.0581547 59.0989552,18.5770801 C59.4634103,19.0962692 59.6461652,19.8132194 59.6461652,20.7279308 C59.6461652,20.8639905 59.6182114,21.0923388 59.5625674,21.4137667 C59.5069234,21.7354582 59.4357201,22.1183239 59.3494851,22.5634184 C59.2627226,23.0082493 59.1667301,23.4968512 59.062035,24.027906 C58.9568125,24.5594881 58.86082,25.1031995 58.7745849,25.6595677 C58.6878225,26.2156721 58.616883,26.7657119 58.561239,27.3096871 C58.5055949,27.8536622 58.4779048,28.3543935 58.4779048,28.8113537 C58.4779048,29.5778761 58.5733699,30.2083388 58.7653549,30.7024781 C58.9568125,31.1968811 59.2566572,31.4439507 59.6646253,31.4439507 C59.8500174,31.4439507 60.0633634,31.3883139 60.3043996,31.277304 C60.5454357,31.1660303 60.8049319,31.0207418 61.0831519,30.8414383 C61.361372,30.6623985 61.6453937,30.4551448 61.9360084,30.2204682 C62.2263594,29.9857915 62.5138095,29.7447866 62.7983587,29.4971896 C63.4534284,28.916299 64.1393529,28.2615776 64.8566595,27.5319706 L65.1717997,31.6849557 L64.2445754,32.3895129 C63.7374502,32.7726423 63.2216223,33.1560353 62.6963007,33.5391647 C62.1707154,33.922294 61.6237691,34.2653438 61.0551981,34.5680502 C60.4866271,34.8710204 59.8932668,35.11809 59.2751173,35.3095229 C58.6569677,35.5014831 58.0079635,35.5969358 57.3283682,35.5969358 C56.6482455,35.5969358 56.0767736,35.105697 55.6131615,34.1229557 C55.1495493,33.1404781 54.9177432,31.7036771 54.9177432,29.8125527 C54.9177432,29.0708164 54.9670581,28.2708065 55.0662152,27.4114682 C55.1648448,26.5526572 55.2885275,25.6289806 55.4369994,24.6399109 L55.1403193,24.6399109 L50.2821491,34.2806373 C50.0345201,34.787697 49.7565638,35.1336473 49.4477527,35.3190154 C49.1384143,35.5043836 48.7802884,35.5969358 48.3723202,35.5969358 C47.865195,35.5969358 47.4572269,35.4888264 47.1484158,35.2726075 C46.839341,35.0566522 46.6014695,34.7658114 46.4345375,34.4011398 C46.2676055,34.0367318 46.1563174,33.6224881 46.1006734,33.1589358 C46.0450294,32.6953836 46.0173393,32.2165378 46.0173393,31.7221348" id="Fill-8"></path>
                        <path d="M72.7927343,4.41255323 C72.3968971,4.41255323 72.0569676,4.5362199 71.7729458,4.78328955 C71.4883966,5.03088657 71.2194066,5.38316517 70.9662396,5.84012537 C70.7128088,6.29734925 70.4591143,6.85371741 70.2059473,7.50870249 C69.9525165,8.16421493 69.6650665,8.89303085 69.3438608,9.69646866 C69.1458103,10.4010259 68.9635828,11.1306328 68.7969145,11.8842348 C68.6299824,12.6381005 68.4783459,13.3890657 68.3425324,14.1368667 C68.2061914,14.8849313 68.0856733,15.6232398 67.9809782,16.3523194 C67.8757556,17.0819264 67.786356,17.7677622 67.7119882,18.4103542 C67.5265961,19.9307423 67.3783879,21.4260806 67.2670998,22.8971602 C67.538727,22.0813294 67.8354071,21.1945682 68.1571402,20.2366129 C68.4783459,19.2789214 68.7969145,18.3333592 69.1120547,17.3999264 C69.4271949,16.4667572 69.7238751,15.5828965 70.0020951,14.748608 C70.2803151,13.9143194 70.5121212,13.2071254 70.6975133,12.6257075 C70.7837483,12.3541154 70.907431,12.0139662 71.0682976,11.6060507 C71.2286367,11.1981353 71.4021616,10.7596328 71.5875537,10.2897522 C71.7729458,9.82013532 71.9583379,9.3320607 72.1437301,8.825001 C72.3291222,8.31846866 72.4989551,7.83039403 72.6537562,7.36051343 C72.8082936,6.89063284 72.9346134,6.45186667 73.0337705,6.04395124 C73.1326638,5.6362995 73.1822424,5.29034925 73.1822424,5.00583682 C73.1822424,4.61031443 73.0522306,4.41255323 72.7927343,4.41255323 L72.7927343,4.41255323 Z M69.1584687,25.2331154 C69.603357,24.6648816 70.0914947,24.0404836 70.6231455,23.3604488 C71.1545326,22.6809413 71.6769533,22.0320209 72.190144,21.4139512 C72.7028073,20.7958816 73.1727486,20.2458418 73.5994406,19.7638318 C74.0258688,19.2818219 74.36237,18.9543294 74.609999,18.7810905 C74.9929142,18.5094985 75.4628555,18.2777224 76.0190319,18.0857622 C76.5754719,17.8943294 77.1933578,17.7986129 77.8734805,17.7986129 C78.2192117,17.7986129 78.5501749,17.8790358 78.8653151,18.0396179 C79.1807191,18.2002 79.4557745,18.4288119 79.6904815,18.7254537 C79.9251884,19.0220955 80.1105805,19.3809662 80.2469215,19.8007473 C80.3827351,20.2210557 80.4507737,20.6906726 80.4507737,21.2098617 C80.4507737,21.7169214 80.3270911,22.2268816 80.0799895,22.7394786 C79.8323605,23.2523393 79.5235494,23.7683642 79.1527652,24.2875532 C78.781981,24.8067423 78.3800783,25.3259313 77.9475846,25.8448567 C77.5145634,26.3640458 77.1131882,26.8861353 76.742404,27.4116527 C76.371356,27.9371701 76.0622812,28.458996 75.8151797,28.9781851 C75.5675506,29.4973741 75.4443954,30.0165632 75.4443954,30.5354886 C75.4443954,30.9805831 75.5525188,31.2988468 75.7687657,31.4902796 C75.9847488,31.6822398 76.3220412,31.7776925 76.7793242,31.7776925 C77.0266895,31.7776925 77.2954157,31.6943692 77.5860304,31.5274587 C77.8761176,31.3605483 78.1762261,31.1411652 78.4853008,30.8693095 C78.7941119,30.5977174 79.1063512,30.2944836 79.4217552,29.9609264 C79.7368954,29.6271055 80.039641,29.2872199 80.3302557,28.941006 C80.6206066,28.5953194 80.8959258,28.264399 81.155422,27.9492995 C81.4149182,27.6339363 81.6496252,27.3652448 81.8600703,27.1426975 L82.9726867,31.6851403 C82.5892441,32.2412448 82.1040073,32.7575333 81.5169762,33.2332149 C80.9296814,33.7088965 80.2930718,34.1231403 79.6071473,34.4754189 C78.9209591,34.8276975 78.2099817,35.1029811 77.4747424,35.3004786 C76.7392394,35.4982398 76.0311628,35.5971204 75.3515675,35.5971204 C74.4615271,35.5971204 73.7352541,35.4887473 73.1727486,35.2725284 C72.6102431,35.0565731 72.1682556,34.7691602 71.8470499,34.4105532 C71.5253168,34.0519463 71.3061691,33.6474587 71.1888156,33.1960358 C71.0711984,32.7448766 71.0126535,32.2784239 71.0126535,31.7964139 C71.0126535,31.5119015 71.0464092,31.1630507 71.1147115,30.748807 C71.1824864,30.3348269 71.3122345,29.8681104 71.5039558,29.3489214 C71.6954134,28.829996 71.9644034,28.2583343 72.3106621,27.6339363 C72.6563933,27.0100657 73.1078746,26.3392597 73.6643146,25.6225731 C73.8866269,25.4000259 74.0907429,25.1991005 74.276135,25.019797 C74.4615271,24.8410209 74.62213,24.6799114 74.7582072,24.5377871 C74.8942845,24.3959264 74.9992434,24.2627672 75.0733475,24.1393642 C75.1477153,24.0159612 75.1846355,23.8862299 75.1846355,23.7499065 C75.1846355,23.4904438 75.1384852,23.2802896 75.0456573,23.1194438 C74.9528294,22.9591254 74.8199167,22.8784388 74.6469192,22.8784388 C74.4364741,22.8784388 74.164847,23.0147622 73.8312467,23.2863542 C73.4973826,23.55821 73.1326638,24.0344189 72.7370903,24.7139264 L67.2855599,34.2805582 C67.0010107,34.7749612 66.7074952,35.1180109 66.4047496,35.3097075 C66.1017403,35.501404 65.7525807,35.5971204 65.3572709,35.5971204 C64.8256202,35.5971204 64.4049937,35.4829463 64.0961826,35.2540706 C63.7871078,35.0254587 63.5521372,34.7164239 63.391798,34.3269662 C63.2309315,33.9377721 63.1288735,33.4866129 63.0856241,32.9734886 C63.0421111,32.4608915 63.0207501,31.9140159 63.0207501,31.3328617 C63.0207501,30.6283045 63.0455394,29.6951353 63.0951179,28.5333542 C63.144169,27.3715731 63.2182731,26.0950905 63.3174302,24.7046975 C63.4163236,23.3143045 63.5492363,21.8587821 63.7161683,20.338394 C63.8831003,18.8182697 64.083788,17.3413891 64.3187586,15.9074886 C64.4049937,15.4006925 64.5162817,14.7857871 64.6526227,14.0627721 C64.7884362,13.3394935 64.9585329,12.564006 65.1623851,11.7357821 C65.366501,10.9080856 65.6075371,10.0458468 65.8857572,9.14959303 C66.1637135,8.2533393 66.4851829,7.38213532 66.8499017,6.53545373 C67.2143567,5.68903582 67.6254894,4.88243383 68.0830361,4.11591144 C68.5400554,3.34965274 69.0532461,2.67911045 69.6220808,2.10428458 C70.1903881,1.52945871 70.8148668,1.075399 71.4947258,0.741578109 C72.1743211,0.407757214 72.9161533,0.241110448 73.7199586,0.241110448 C74.3502391,0.241110448 74.8694953,0.342891542 75.2774634,0.546981095 C75.6854315,0.750806965 76.0098018,1.0353194 76.2508379,1.39972736 C76.4918741,1.764399 76.661707,2.200001 76.7608641,2.70679701 C76.8597574,3.21385672 76.9090723,3.76363284 76.9090723,4.35691642 C76.9090723,5.40742388 76.7761596,6.53861791 76.5105979,7.74970746 C76.2445088,8.96132438 75.9080076,10.1755781 75.5000394,11.392996 C75.0920713,12.6104139 74.6469192,13.7938169 74.164847,14.9434687 C73.6827747,16.0928567 73.2191626,17.1309711 72.7742742,18.0580756 C72.3291222,18.9851801 71.9364495,19.7667323 71.5967838,20.4035234 C71.2565905,21.0403144 71.0311136,21.4574587 70.9198256,21.6549562 L68.7133166,24.9549313 L69.1584687,25.2331154 Z" id="Fill-10"></path>
                        <path d="M82.3977338,49.2425373 C82.91699,49.2425373 83.4082923,49.0911841 83.8719044,48.7882139 C84.3355166,48.4852438 84.7619448,48.0865572 85.1511891,47.5924179 C85.5406972,47.0980149 85.8959222,46.5355821 86.2173916,45.9053831 C86.538861,45.2749204 86.8228828,44.6289005 87.0705118,43.9678507 C87.3176134,43.3065373 87.5275311,42.6607811 87.7007923,42.0303184 C87.8740535,41.4001194 88.0096033,40.8374229 88.1087604,40.3432836 C87.6266882,40.6647114 87.1353859,41.0478408 86.6345898,41.4926716 C86.1340575,41.9377662 85.6453923,42.4166119 85.169913,42.9297363 C84.6939062,43.4423333 84.2426887,43.9707512 83.8162604,44.5147264 C83.3898322,45.0587015 83.0158833,45.580791 82.6944139,46.0815224 C82.3726808,46.58199 82.1195138,47.0484428 81.9341217,47.4811443 C81.7487295,47.9138458 81.6559016,48.2719254 81.6559016,48.5564378 C81.6559016,49.0136617 81.9032669,49.2425373 82.3977338,49.2425373 L82.3977338,49.2425373 Z M91.0755617,21.358209 C91.1744551,20.9381642 91.3506172,20.564 91.6040479,20.2365075 C91.857215,19.9092786 92.1480934,19.633995 92.4756282,19.4114478 C92.8028994,19.1889005 93.1459935,19.0222537 93.5046468,18.9109801 C93.8633001,18.7997065 94.2029659,18.7440697 94.5244353,18.7440697 C94.9076142,18.7440697 95.2290836,18.827393 95.4888435,18.9943035 C95.7483397,19.1612139 95.8780878,19.4238408 95.8780878,19.7821841 C95.8780878,19.8934577 95.8596277,20.0231891 95.8224438,20.1716418 C95.7483397,20.4933333 95.6555118,20.9318358 95.5444875,21.4879403 C95.4331995,22.0443085 95.3126814,22.6745075 95.1826696,23.3790647 C95.0529215,24.0836219 94.9200088,24.8282587 94.7841952,25.6132388 C94.6478542,26.3982189 94.5181061,27.1797711 94.3946872,27.9584229 C94.0856124,29.7878458 93.7704722,31.7530647 93.4490028,33.8543433 C93.8200507,33.6441891 94.221426,33.3844627 94.6544471,33.0754279 C95.0869408,32.7669204 95.5690131,32.3524129 96.1006639,31.8334876 C96.6320509,31.3142985 97.2254112,30.6624776 97.8807447,29.8774975 C98.5358144,29.0925174 99.2713174,28.113204 100.087254,26.9387662 L100.977294,31.0545721 C100.754718,31.4379652 100.467532,31.8305871 100.115208,32.2319104 C99.7628834,32.6337612 99.3733754,33.0356119 98.9469471,33.437199 C98.5205189,33.8387861 98.0753668,34.2282438 97.6117547,34.6050448 C97.1484062,34.9823731 96.6940241,35.3375522 96.2488721,35.6711095 C95.1982288,36.4618905 94.0671523,37.2284129 92.8556425,37.9701493 C92.6209356,39.2927761 92.3427155,40.5811244 92.0212461,41.8357214 C91.699513,43.0900547 91.3194987,44.2644925 90.8809396,45.3585075 C90.4421167,46.4522587 89.9413206,47.4563582 89.3790788,48.3710697 C88.8163096,49.2857811 88.1799636,50.0704975 87.4689862,50.7257463 C86.7580087,51.3807313 85.9639608,51.8906915 85.0863151,52.2553632 C84.2084056,52.6197711 83.2384594,52.8022388 82.1751578,52.8022388 C81.754795,52.8022388 81.3006766,52.7587313 80.8122752,52.6725075 C80.3238738,52.5860199 79.87292,52.4127811 79.4586226,52.1533184 C79.044589,51.8938557 78.7014949,51.5228557 78.4296041,51.0408458 C78.1579769,50.5588358 78.0216359,49.9162438 78.0216359,49.112806 C78.0216359,48.5564378 78.1637787,47.9291393 78.4480642,47.2309104 C78.7328771,46.5326816 79.1221214,45.79701 79.6163246,45.0246866 C80.1105278,44.2520995 80.6980863,43.4486617 81.3779453,42.6143731 C82.0575406,41.7800846 82.7964719,40.9486965 83.5936844,40.1207363 C84.3911606,39.2927761 85.225557,38.4769453 86.0968735,37.6735075 C86.9684538,36.869806 87.8492642,36.1038109 88.7393046,35.3744677 L89.2398369,33.6502537 C88.5723726,34.2435373 87.8769543,34.7229104 87.153846,35.0870547 C86.4307376,35.4517264 85.7289902,35.634194 85.0493949,35.634194 C84.4560346,35.634194 83.8779699,35.5136915 83.3154644,35.2726866 C82.7529588,35.0314179 82.2555911,34.6857313 81.8228336,34.2343085 C81.3900762,33.7831493 81.0440813,33.2331095 80.784585,32.5841891 C80.5248251,31.9352687 80.395077,31.2030249 80.395077,30.387194 C80.395077,29.3119005 80.4475564,28.3230945 80.552779,27.4207761 C80.6574741,26.5187214 80.8093743,25.6593831 81.0071611,24.8438159 C81.2046841,24.0279851 81.4520494,23.2401045 81.7487295,22.4799104 C82.0454097,21.7197164 82.3853392,20.9502935 82.768518,20.1716418 C83.0528035,19.6155373 83.4607717,19.1920647 83.9924225,18.9017512 C84.5238096,18.6114378 85.042802,18.4658856 85.5499272,18.4658856 C85.9826847,18.4658856 86.3534689,18.5742587 86.6625437,18.7904776 C86.9713547,19.0066965 87.1261558,19.3436816 87.1261558,19.8009055 C87.1261558,19.9369652 87.1103329,20.0854179 87.0797419,20.2457363 C87.0488871,20.4065821 86.996144,20.5795572 86.9220399,20.7649254 C86.6994639,21.3334229 86.4797887,22.0042289 86.2638056,22.7765522 C86.0475587,23.5491393 85.8558374,24.3404478 85.6889054,25.1496866 C85.5222371,25.9591891 85.3893244,26.753398 85.290431,27.5320498 C85.1912739,28.3107015 85.1419591,28.996801 85.1419591,29.5900846 C85.1419591,29.8991194 85.1633201,30.1989254 85.2068332,30.4892388 C85.2500825,30.7795522 85.3273512,31.0392786 85.4386392,31.2678905 C85.5499272,31.4967662 85.6983992,31.6821343 85.8837913,31.823995 C86.0691834,31.9661194 86.3038904,32.0373134 86.5884396,32.0373134 C87.0454588,32.0373134 87.4597561,31.8398159 87.8308041,31.4440299 C88.2015883,31.0485075 88.5230577,30.5725622 88.7949486,30.0164577 C89.0665757,29.4603532 89.2862509,28.8855274 89.4531829,28.2922438 C89.6201149,27.6989602 89.7282384,27.2048209 89.7775532,26.8090348 L91.0755617,21.358209 Z" id="Fill-12"></path>
                    </g>
                </g>
            </g>
        </g>
    </g>
</svg>