<?xml version="1.0" encoding="UTF-8" standalone="no"?>
<svg width="31px" height="18px" viewBox="0 0 31 18" version="1.1" xmlns="http://www.w3.org/2000/svg" xmlns:xlink="http://www.w3.org/1999/xlink">
    <!-- Generator: Sketch 40.3 (33839) - http://www.bohemiancoding.com/sketch -->
    <title>slink-logo</title>
    <desc>Created with Sketch.</desc>
    <defs></defs>
    <g id="Page-1" stroke="none" stroke-width="1" fill="none" fill-rule="evenodd">
        <g id="slink-logo" fill="#FFFFFF">
            <path d="M29.9,14.8 L18.6,14.8 C18.3,14.8 18,15 18,15.4 L18,15.5 C18,15.8 18.3,16 18.6,16 L30,16 C30.3,16 30.5,15.7 30.5,15.4 L30.5,15.3 C30.5,15 30.2,14.8 29.9,14.8" id="Fill-7"></path>
            <path d="M29.9,16 L18.6,16 C18.3,16 18,16.3 18,16.6 L18,16.7 C18,17 18.2,17.3 18.5,17.3 L29.9,17.3 C30.2,17.3 30.4,17 30.4,16.7 L30.4,16.6 C30.5,16.3 30.2,16 29.9,16" id="Fill-27"></path>
            <path d="M28.8,9.6 L18.2,13.7 C17.9,13.8 17.8,14.1 17.9,14.4 L17.9,14.5 C18,14.8 18.3,14.9 18.6,14.8 L29.3,10.7 C29.6,10.6 29.7,10.3 29.6,10 L29.6,9.9 C29.4,9.6 29.1,9.5 28.8,9.6" id="Fill-10"></path>
            <path d="M26.1,5.3 L17.3,12.7 C17.1,12.9 17.1,13.3 17.3,13.5 L17.4,13.6 C17.6,13.8 17.9,13.9 18.2,13.7 L26.9,6.3 C27.1,6.1 27.2,5.7 27,5.5 L26.8,5.4 C26.7,5.1 26.3,5.1 26.1,5.3" id="Fill-12"></path>
            <path d="M22,2.1 L16.3,12.1 C16.1,12.4 16.2,12.7 16.5,12.9 L16.6,12.9 C16.9,13.1 17.2,13 17.4,12.7 L23.1,2.7 C23.3,2.4 23.2,2.1 22.9,1.9 L22.8,1.9 C22.5,1.7 22.2,1.8 22,2.1" id="Fill-14"></path>
            <path d="M17.2,0.5 L15.1,11.9 C15,12.2 15.2,12.5 15.5,12.6 L15.6,12.6 C15.9,12.7 16.2,12.5 16.2,12.2 L18.3,0.8 C18.4,0.5 18.2,0.2 17.9,0.1 L17.8,0.1 C17.6,-8.32667268e-17 17.3,0.2 17.2,0.5" id="Fill-16"></path>
            <path d="M12.1,0.7 L14.1,12.1 C14.2,12.4 14.4,12.6 14.7,12.6 L14.8,12.6 C15.1,12.5 15.3,12.3 15.2,12 L13.2,0.6 C13.2,0.2 12.9,1.11022302e-16 12.6,0.1 L12.5,0.1 C12.2,0.2 12,0.4 12.1,0.7" id="Fill-18"></path>
            <path d="M7.3,2.7 L13,12.7 C13.2,13 13.5,13.1 13.8,12.9 L13.9,12.9 C14.2,12.7 14.3,12.4 14.1,12.1 L8.4,2.1 C8.2,1.8 7.8,1.7 7.6,1.9 L7.5,1.9 C7.2,2.1 7.1,2.4 7.3,2.7" id="Fill-21"></path>
            <path d="M3.6,6.1 L12.3,13.6 C12.5,13.8 12.9,13.8 13.1,13.5 L13.2,13.4 C13.4,13.2 13.4,12.8 13.1,12.6 L4.3,5.2 C4.1,5 3.8,5 3.6,5.3 L3.5,5.3 C3.3,5.6 3.3,5.9 3.6,6.1" id="Fill-23"></path>
            <path d="M1.3,10.7 L12,14.7 C12.3,14.8 12.6,14.7 12.7,14.4 L12.7,14.3 C12.8,14 12.7,13.7 12.4,13.6 L1.7,9.6 C1.4,9.4 1.1,9.6 1,9.9 L1,10 C0.8,10.2 1,10.5 1.3,10.7" id="Fill-25"></path>
            <path d="M11.9,14.7 L0.5,14.7 C0.2,14.7 0,15 0,15.3 L0,15.4 C0,15.7 0.2,16 0.5,16 L11.9,16 C12.2,16 12.4,15.7 12.4,15.4 L12.4,15.3 C12.5,14.9 12.2,14.7 11.9,14.7" id="Fill-1"></path>
            <path d="M11.9,15.9 L0.5,15.9 C0.2,15.9 0,16.2 0,16.5 L0,16.6 C0,16.9 0.2,17.2 0.5,17.2 L11.9,17.2 C12.2,17.2 12.4,16.9 12.4,16.6 L12.4,16.5 C12.5,16.1 12.2,15.9 11.9,15.9" id="Fill-4"></path>
        </g>
    </g>
</svg>