<?xml version="1.0" encoding="UTF-8" standalone="no"?>
<svg width="195px" height="199px" viewBox="0 0 195 199" version="1.1" xmlns="http://www.w3.org/2000/svg" xmlns:xlink="http://www.w3.org/1999/xlink">
    <!-- Generator: Sketch 41 (35326) - http://www.bohemiancoding.com/sketch -->
    <title>Logo</title>
    <desc>Created with Sketch.</desc>
    <defs>
        <filter x="-50%" y="-50%" width="200%" height="200%" filterUnits="objectBoundingBox" id="filter-1">
            <feOffset dx="0" dy="0" in="SourceAlpha" result="shadowOffsetOuter1"></feOffset>
            <feGaussianBlur stdDeviation="8.5" in="shadowOffsetOuter1" result="shadowBlurOuter1"></feGaussianBlur>
            <feColorMatrix values="0 0 0 0 0   0 0 0 0 0   0 0 0 0 0  0 0 0 1 0" type="matrix" in="shadowBlurOuter1" result="shadowMatrixOuter1"></feColorMatrix>
            <feMerge>
                <feMergeNode in="shadowMatrixOuter1"></feMergeNode>
                <feMergeNode in="SourceGraphic"></feMergeNode>
            </feMerge>
        </filter>
        <polygon id="path-2" points="72.5747161 11.3309122 0 11.3309122 0 0.0857816706 72.5747161 0.0857816706 72.5747161 11.3309122"></polygon>
        <polygon id="path-4" points="72.5747161 11.3309122 0 11.3309122 0 0.0857816706 72.5747161 0.0857816706 72.5747161 11.3309122"></polygon>
        <polygon id="path-6" points="1.8030662e-20 0.00373253578 1.8030662e-20 11.2493296 72.5747161 11.2493296 72.5747161 0.00373253578 0 0.00373253578"></polygon>
        <polygon id="path-8" points="1.8030662e-20 0.00373253578 1.8030662e-20 11.2493296 72.5747161 11.2493296 72.5747161 0.00373253578 0 0.00373253578"></polygon>
        <polygon id="path-10" points="72.5747161 11.3309122 0 11.3309122 0 0.0857816706 72.5747161 0.0857816706 72.5747161 11.3309122"></polygon>
        <polygon id="path-12" points="72.5747161 11.3309122 0 11.3309122 0 0.0857816706 72.5747161 0.0857816706 72.5747161 11.3309122"></polygon>
        <polygon id="path-14" points="1.8030662e-20 0.00373253578 1.8030662e-20 11.2493296 72.5747161 11.2493296 72.5747161 0.00373253578 0 0.00373253578"></polygon>
        <polygon id="path-16" points="1.8030662e-20 0.00373253578 1.8030662e-20 11.2493296 72.5747161 11.2493296 72.5747161 0.00373253578 0 0.00373253578"></polygon>
        <polygon id="path-18" points="1.8030662e-20 0.104403333 1.8030662e-20 11.350667 72.5747161 11.350667 72.5747161 0.104403333 0 0.104403333"></polygon>
        <polygon id="path-20" points="11.337067 0.151967528 0.11357615 0.151967528 0.11357615 72.8701628 11.337067 72.8701628 11.337067 0.151967528"></polygon>
    </defs>
    <g id="Page-1" stroke="none" stroke-width="1" fill="none" fill-rule="evenodd">
        <g id="Tablet" transform="translate(-286.000000, -68.000000)">
            <g id="Header-Copy">
                <g id="Logo" filter="url(#filter-1)" transform="translate(303.000000, 84.000000)">
                    <g id="Text-Copy" transform="translate(31.000000, 114.000000)" fill="#FFFFFF">
                        <path d="M8.88186473,11.2723881 C8.88186473,12.0882189 9.11973627,12.8175622 9.59574306,13.4601542 C10.0714861,14.1027463 10.7017666,14.6994577 11.4871119,15.2492338 C12.2719297,15.7992736 13.1619701,16.3216269 14.157233,16.8157662 C15.1519686,17.3101692 16.1720208,17.8201294 17.2165986,18.3453831 C18.2611763,18.8709005 19.2809648,19.4330697 20.2762278,20.0326816 C21.2709633,20.6322935 22.1610037,21.3089005 22.946349,22.0627662 C23.7311668,22.8166318 24.361711,23.6696418 24.8377178,24.6212687 C25.3134608,25.5731592 25.5515961,26.6605821 25.5515961,27.8843284 C25.5515961,28.996801 25.3722694,30.0196219 25.0138798,30.952791 C24.6552265,31.8862239 24.1636605,32.7234129 23.5397092,33.4648856 C22.9152305,34.2066219 22.1768266,34.8618706 21.3239702,35.4301045 C20.47085,35.9983383 19.5499548,36.4684826 18.5610211,36.8392189 C17.5718236,37.2099552 16.533575,37.4910398 15.4460115,37.6827363 C14.3579207,37.8744328 13.2640281,37.9701493 12.1638063,37.9701493 C10.6184324,37.9701493 9.11657168,37.7816169 7.6579603,37.4045522 C6.19934891,37.0274876 4.90134037,36.4592537 3.76419839,35.6990597 C2.62652898,34.9388657 1.71512762,33.9872388 1.02920315,32.8439154 C0.343014975,31.7008557 -7.91147017e-05,30.362408 -7.91147017e-05,28.8298905 C-7.91147017e-05,28.0391095 0.126504408,27.3437811 0.380198885,26.7441692 C0.63336593,26.1445572 0.948506159,25.6440896 1.32588329,25.2422388 C1.70273298,24.8409154 2.11386572,24.5379453 2.55875405,24.3338557 C3.00390611,24.1300299 3.41793972,24.0279851 3.80111859,24.0279851 C4.1966921,24.0279851 4.52712783,24.1363582 4.79321695,24.3523134 C5.05877863,24.568796 5.19195504,24.9057811 5.19195504,25.363005 C5.19195504,25.5731592 5.16690206,25.7957065 5.11785094,26.0303831 C5.06827239,26.2650597 5.01579297,26.5216219 4.96014897,26.799806 C4.90450496,27.0777264 4.85176183,27.3838607 4.802447,27.7174179 C4.75286845,28.0512388 4.72834289,28.4159104 4.72834289,28.8114328 C4.72834289,29.6765721 4.92586593,30.4243731 5.32170315,31.0545721 C5.71727666,31.6850348 6.24233457,32.2042239 6.89793173,32.6121393 C7.55273774,33.0200547 8.30696457,33.3230249 9.16008477,33.5205224 C10.0129413,33.7182836 10.8966525,33.8171642 11.8114821,33.8171642 C12.8871784,33.8171642 13.9626109,33.6874328 15.0380434,33.4277065 C16.1134759,33.1682438 17.0776204,32.7853781 17.9307406,32.2783184 C18.7835971,31.7715224 19.475587,31.1505522 20.0075015,30.4151443 C20.5386249,29.68 20.804714,28.8362189 20.804714,27.8843284 C20.804714,27.006796 20.5665787,26.2220796 20.0908357,25.5296517 C19.6148289,24.8374876 18.9842847,24.1980597 18.1994669,23.6108408 C17.4141216,23.0238856 16.521444,22.4706816 15.5201156,21.9514925 C14.5187872,21.4323035 13.4989987,20.9070498 12.4604864,20.3754677 C11.4222378,19.8444129 10.4024493,19.2848806 9.40112089,18.6976617 C8.39979248,18.1109701 7.5065875,17.4646866 6.72176966,16.7601294 C5.93642439,16.0558358 5.30588021,15.2676915 4.83040086,14.3964876 C4.35439407,13.5250199 4.11652253,12.5330498 4.11652253,11.4205771 C4.11652253,10.3824627 4.3667887,9.35990547 4.86732105,8.35237811 C5.36811711,7.34485075 6.1218165,6.44279602 7.12947409,5.64542289 C8.13686796,4.84831343 9.394528,4.20255721 10.9029816,3.70815423 C12.4109079,3.21375124 14.178594,2.96641791 16.2060401,2.96641791 C17.491654,2.96641791 18.749314,3.15837811 19.9795477,3.54124378 C21.2095176,3.92437313 22.3065748,4.46808458 23.270983,5.17264179 C24.2351275,5.877199 25.0107153,6.7180796 25.5980101,7.69422886 C26.1847774,8.67064179 26.4788204,9.752 26.4788204,10.9385672 C26.4788204,11.6431244 26.3583023,12.3661393 26.1170025,13.1078756 C25.8759664,13.8493483 25.4896229,14.6219353 24.9582358,15.4253731 C24.4389797,16.2040249 23.8735733,16.7820149 23.2614892,17.1588159 C22.6496688,17.5361443 22.0961296,17.7244129 21.6019265,17.7244129 C21.2311422,17.7244129 20.9281329,17.6163035 20.693426,17.3998209 C20.4584553,17.1838657 20.3411018,16.8592736 20.3411018,16.4265721 C20.3411018,16.1051443 20.415206,15.7251791 20.5636779,15.2864129 C20.7118861,14.8479104 20.9650531,14.3437512 21.3239702,13.7752537 C21.6575705,13.2315423 21.9046721,12.7215821 22.0655386,12.2456368 C22.2261415,11.7702189 22.3065748,11.3280249 22.3065748,10.9201095 C22.3065748,10.2896468 22.1364781,9.73670647 21.7968124,9.26076119 C21.4566191,8.7850796 20.9869415,8.38665672 20.3875158,8.06496517 C19.7875626,7.74353731 19.0678826,7.50253234 18.2274207,7.34195025 C17.3864315,7.18136816 16.4658,7.10094527 15.4644716,7.10094527 C14.3518552,7.10094527 13.3845461,7.22777612 12.5625444,7.48091045 C11.7402789,7.73430846 11.0540907,8.06206468 10.5042435,8.46365174 C9.95413266,8.86523881 9.54616451,9.31349751 9.28060283,9.80763682 C9.01451372,10.3020398 8.88186473,10.7903781 8.88186473,11.2723881" id="Fill-1"></path>
                        <path d="M29.551592,20.7649254 C30.1077683,19.7761194 30.697964,18.6636468 31.3224427,17.4277711 C31.946394,16.1918955 32.5368534,14.9185771 33.0932935,13.6083433 C33.6494698,12.2986368 34.1315421,10.9915672 34.5395102,9.68713433 C34.9474784,8.38322886 35.2069746,7.16871144 35.3182626,6.04410945 C35.3182626,5.68550249 35.3090325,5.37963184 35.2905724,5.12623383 C35.2718486,4.8730995 35.21304,4.74626866 35.1144104,4.74626866 C34.7554933,4.74626866 34.3694136,4.97804478 33.95538,5.44159701 C33.5410827,5.90514925 33.1270491,6.53244776 32.7130155,7.32322886 C32.2987181,8.11427363 31.9031446,9.03557711 31.5262949,10.0858209 C31.1491815,11.1363284 30.8124166,12.2551294 30.5157365,13.4416965 C30.2190564,14.6282637 29.9840857,15.8488458 29.8110882,17.1031791 C29.637827,18.3577761 29.551592,19.5783582 29.551592,20.7649254 M29.5331319,35.5970149 C28.8654038,35.5970149 28.2443534,35.3035373 27.6694532,34.7163184 C27.0948168,34.1296269 26.5940207,33.3414826 26.1675925,32.3524129 C25.7411642,31.363607 25.4073002,30.2176468 25.1662641,28.9132139 C24.9252279,27.6093085 24.8047099,26.240801 24.8047099,24.8066368 C24.8047099,23.7065572 24.8848794,22.5107612 25.045746,21.2192488 C25.2060851,19.9277363 25.4413195,18.5956169 25.7503943,17.2236816 C26.0592053,15.8517463 26.4270887,14.4737463 26.8537807,13.0894179 C27.2802089,11.7053532 27.7622811,10.376398 28.2999974,9.1030796 C28.8377137,7.83028856 29.4218439,6.64055721 30.0521243,5.53414925 C30.6826685,4.42826866 31.3438037,3.46424876 32.0363211,2.64208955 C32.728311,1.81993035 33.4516831,1.17443781 34.2056462,0.704557214 C34.9596093,0.234940299 35.7262307,0 36.5049831,0 C37.0363702,0 37.4751931,0.120502488 37.8214518,0.361507463 C38.1674467,0.602512438 38.4396013,0.920776119 38.637388,1.31629851 C38.8349111,1.71208458 38.9738892,2.15981592 39.0545862,2.66054726 C39.1347558,3.16101493 39.1751043,3.67097512 39.1751043,4.19016418 C39.1751043,5.35194527 39.0421916,6.53534826 38.7763662,7.74037313 C38.5105408,8.94566169 38.1521512,10.1572786 37.7009337,11.3744328 C37.2494525,12.5918507 36.7275591,13.8124328 36.1341989,15.0359154 C35.5408386,16.2596617 34.9224254,17.4741791 34.280014,18.679204 C33.6370752,19.8842289 32.9912355,21.070796 32.3422312,22.2389055 C31.693227,23.4070149 31.0843075,24.5471741 30.5157365,25.6593831 C30.4537633,25.7830498 30.3888892,25.9441592 30.3211143,26.1416567 C30.2530757,26.3394179 30.1882016,26.5524726 30.1264922,26.7810846 C30.0642553,27.0102239 30.0025458,27.2538657 29.9411,27.513592 C29.8788631,27.7730547 29.829812,28.0264527 29.7926281,28.2737861 L29.7926281,28.5332488 C29.7926281,28.8549403 29.8263837,29.1666119 29.8946861,29.4695821 C29.962461,29.7725522 30.0457952,30.0441443 30.1449522,30.2851493 C30.2438456,30.5264179 30.3488045,30.7181144 30.4600925,30.8599751 C30.5713805,31.0020995 30.6763393,31.0732935 30.7754964,31.0732935 C31.0099397,31.0732935 31.2789296,31.0239851 31.5819389,30.9248408 C31.8846845,30.8259602 32.2058902,30.6930647 32.5460834,30.5264179 C32.8860129,30.3595075 33.2351725,30.1678109 33.5938258,29.951592 C33.9522154,29.7356368 34.2984741,29.51599 34.6323381,29.2934428 C35.4110905,28.7742537 36.2267631,28.1749055 37.0798833,27.4948706 L38.6004679,31.388393 C37.4999824,32.1794378 36.4124189,32.883995 35.3367227,33.5020647 C34.8667814,33.7615274 34.3818082,34.0183532 33.8812759,34.2714876 C33.3807435,34.5248856 32.8767829,34.750597 32.3701851,34.9480945 C31.8630599,35.1458557 31.3688567,35.3035373 30.8865207,35.4208756 C30.4044485,35.5384776 29.9529672,35.5970149 29.5331319,35.5970149" id="Fill-4"></path>
                        <path d="M39.0453562,12.5887393 C39.0453562,12.3044905 39.1070657,11.9833264 39.2307483,11.6247194 C39.3541672,11.2661124 39.5553823,10.929391 39.8333386,10.6142915 C40.1115587,10.2989284 40.4823429,10.033401 40.945955,9.81691841 C41.4095672,9.60096318 41.9871045,9.49259005 42.6796219,9.49259005 C43.1121156,9.49259005 43.5200837,9.54189851 43.9035263,9.6407791 C44.2864415,9.73992338 44.6203055,9.89127662 44.9048547,10.0951025 C45.1888765,10.2989284 45.4146171,10.5678836 45.5815491,10.9017045 C45.7484812,11.2352617 45.8318153,11.6310478 45.8318153,12.0882716 C45.8318153,12.5083164 45.7637767,12.9162318 45.6279631,13.3117542 C45.4916221,13.7075403 45.275639,14.0598189 44.9789588,14.36859 C44.6822787,14.6776249 44.3083299,14.9278587 43.8571124,15.1195552 C43.4056311,15.3112517 42.865014,15.4069682 42.2347335,15.4069682 C41.1466427,15.4069682 40.3433647,15.150406 39.8241086,14.6375453 C39.3048524,14.1246846 39.0453562,13.4414856 39.0453562,12.5887393 L39.0453562,12.5887393 Z M47.3339398,31.6479085 C46.8887877,32.0558239 46.3355122,32.4914259 45.6743771,32.9549781 C45.0127144,33.4185303 44.2988361,33.8449035 43.5327421,34.2343612 C42.7658569,34.6235552 41.9844674,34.9481473 41.1869912,35.20761 C40.3897787,35.4673363 39.6323873,35.5970677 38.9156081,35.5970677 C38.2726693,35.5970677 37.7317884,35.5074159 37.2929655,35.3281124 C36.8541427,35.1493363 36.4986539,34.8988388 36.2267631,34.5774109 C35.9548722,34.2559831 35.7599863,33.8636249 35.6428966,33.4000726 C35.5250157,32.9365204 35.4667345,32.4265602 35.4667345,31.8704557 C35.4667345,31.091804 35.5561341,30.1863214 35.7354608,29.1542716 C35.9145237,28.1224856 36.1341989,27.052993 36.3936951,25.9468488 C36.653455,24.8409682 36.9282468,23.7377244 37.2188614,22.6373811 C37.5092124,21.5375652 37.7658078,20.5239731 37.9883838,19.5968687 C38.0746188,19.2754408 38.2481437,19.0006846 38.5076399,18.771809 C38.7671362,18.543197 39.0606517,18.3578289 39.3884503,18.2157045 C39.7157214,18.0738438 40.0559146,17.9683711 40.4082388,17.900605 C40.7605629,17.8328388 41.078604,17.7985602 41.3631532,17.7985602 C41.8824094,17.7985602 42.2347335,17.8942766 42.4201257,18.0859731 C42.6055178,18.2776697 42.6983457,18.5339682 42.6983457,18.855396 C42.6983457,19.1272517 42.6361088,19.5198736 42.5126899,20.0324706 C42.3890072,20.545595 42.2347335,21.1264856 42.0493414,21.775406 C41.8639493,22.4243264 41.6658988,23.1225552 41.4559812,23.8703562 C41.245536,24.6184209 41.048013,25.3659582 40.8626209,26.1137592 C40.6769651,26.8618239 40.5224277,27.5909035 40.3990087,28.3015254 C40.2753261,29.0124109 40.2136166,29.6521025 40.2136166,30.2203363 C40.2136166,30.7767045 40.2753261,31.2186348 40.3990087,31.5461274 C40.5224277,31.8736199 40.7758584,32.0373662 41.159301,32.0373662 C41.6041894,32.0373662 42.0983925,31.8828488 42.6427017,31.5738139 C43.1864834,31.2650428 43.7365943,30.8908786 44.2927706,30.4521124 C44.8492107,30.01361 45.3929924,29.5592866 45.9246432,29.089406 C46.4560303,28.6197891 46.9259716,28.2179383 47.3339398,27.8843811 L47.3339398,31.6479085 Z" id="Fill-6"></path>
                        <path d="M46.0173393,31.7221348 C46.0173393,30.906304 46.0666541,29.963906 46.1655475,28.8946771 C46.2644409,27.8259756 46.3881235,26.7380254 46.5365954,25.6316174 C46.6848036,24.5257368 46.8517357,23.4596721 47.0371278,22.4334234 C47.2225199,21.407702 47.4015828,20.5304333 47.574844,19.8008264 C47.7106576,19.2325925 47.9735821,18.7563836 48.3630902,18.3732542 C48.7523345,17.9903886 49.2808207,17.7984284 49.9482851,17.7984284 C50.6157495,17.7984284 51.0793616,18.0025179 51.3391216,18.4104333 C51.5986178,18.8180851 51.7283659,19.3623239 51.7283659,20.0418313 C51.7283659,20.2271995 51.7099058,20.4774333 51.6727219,20.7927965 C51.6358017,21.107896 51.5893877,21.45411 51.5337437,21.8309109 C51.4780997,22.2082393 51.4192911,22.597697 51.3575816,22.9990204 C51.2956085,23.4006075 51.2370636,23.7716075 51.1814196,24.111493 C51.1257756,24.4516423 51.0793616,24.7482841 51.0424414,25.0014184 C51.0052575,25.2548164 50.9867974,25.424891 50.9867974,25.5111149 L51.3575816,25.5111149 C51.4316858,25.3753189 51.5490392,25.1561995 51.7099058,24.8529657 C51.8702449,24.5502592 52.055637,24.2014085 52.2660821,23.8056224 C52.4762635,23.4101 52.7020041,22.9929557 52.9430403,22.5539259 C53.1840764,22.1154234 53.4092896,21.6951149 53.6197347,21.2932642 C53.8299161,20.8919408 54.0213737,20.5362343 54.1946349,20.2271995 C54.3676323,19.9184284 54.4973804,19.6895527 54.5838792,19.5413637 C54.9794527,18.8737219 55.4304065,18.4167617 55.9375317,18.1694284 C56.4443933,17.922095 57.0066351,17.7984284 57.6250483,17.7984284 C58.2429341,17.7984284 58.7342364,18.0581547 59.0989552,18.5770801 C59.4634103,19.0962692 59.6461652,19.8132194 59.6461652,20.7279308 C59.6461652,20.8639905 59.6182114,21.0923388 59.5625674,21.4137667 C59.5069234,21.7354582 59.4357201,22.1183239 59.3494851,22.5634184 C59.2627226,23.0082493 59.1667301,23.4968512 59.062035,24.027906 C58.9568125,24.5594881 58.86082,25.1031995 58.7745849,25.6595677 C58.6878225,26.2156721 58.616883,26.7657119 58.561239,27.3096871 C58.5055949,27.8536622 58.4779048,28.3543935 58.4779048,28.8113537 C58.4779048,29.5778761 58.5733699,30.2083388 58.7653549,30.7024781 C58.9568125,31.1968811 59.2566572,31.4439507 59.6646253,31.4439507 C59.8500174,31.4439507 60.0633634,31.3883139 60.3043996,31.277304 C60.5454357,31.1660303 60.8049319,31.0207418 61.0831519,30.8414383 C61.361372,30.6623985 61.6453937,30.4551448 61.9360084,30.2204682 C62.2263594,29.9857915 62.5138095,29.7447866 62.7983587,29.4971896 C63.4534284,28.916299 64.1393529,28.2615776 64.8566595,27.5319706 L65.1717997,31.6849557 L64.2445754,32.3895129 C63.7374502,32.7726423 63.2216223,33.1560353 62.6963007,33.5391647 C62.1707154,33.922294 61.6237691,34.2653438 61.0551981,34.5680502 C60.4866271,34.8710204 59.8932668,35.11809 59.2751173,35.3095229 C58.6569677,35.5014831 58.0079635,35.5969358 57.3283682,35.5969358 C56.6482455,35.5969358 56.0767736,35.105697 55.6131615,34.1229557 C55.1495493,33.1404781 54.9177432,31.7036771 54.9177432,29.8125527 C54.9177432,29.0708164 54.9670581,28.2708065 55.0662152,27.4114682 C55.1648448,26.5526572 55.2885275,25.6289806 55.4369994,24.6399109 L55.1403193,24.6399109 L50.2821491,34.2806373 C50.0345201,34.787697 49.7565638,35.1336473 49.4477527,35.3190154 C49.1384143,35.5043836 48.7802884,35.5969358 48.3723202,35.5969358 C47.865195,35.5969358 47.4572269,35.4888264 47.1484158,35.2726075 C46.839341,35.0566522 46.6014695,34.7658114 46.4345375,34.4011398 C46.2676055,34.0367318 46.1563174,33.6224881 46.1006734,33.1589358 C46.0450294,32.6953836 46.0173393,32.2165378 46.0173393,31.7221348" id="Fill-8"></path>
                        <path d="M72.7927343,4.41255323 C72.3968971,4.41255323 72.0569676,4.5362199 71.7729458,4.78328955 C71.4883966,5.03088657 71.2194066,5.38316517 70.9662396,5.84012537 C70.7128088,6.29734925 70.4591143,6.85371741 70.2059473,7.50870249 C69.9525165,8.16421493 69.6650665,8.89303085 69.3438608,9.69646866 C69.1458103,10.4010259 68.9635828,11.1306328 68.7969145,11.8842348 C68.6299824,12.6381005 68.4783459,13.3890657 68.3425324,14.1368667 C68.2061914,14.8849313 68.0856733,15.6232398 67.9809782,16.3523194 C67.8757556,17.0819264 67.786356,17.7677622 67.7119882,18.4103542 C67.5265961,19.9307423 67.3783879,21.4260806 67.2670998,22.8971602 C67.538727,22.0813294 67.8354071,21.1945682 68.1571402,20.2366129 C68.4783459,19.2789214 68.7969145,18.3333592 69.1120547,17.3999264 C69.4271949,16.4667572 69.7238751,15.5828965 70.0020951,14.748608 C70.2803151,13.9143194 70.5121212,13.2071254 70.6975133,12.6257075 C70.7837483,12.3541154 70.907431,12.0139662 71.0682976,11.6060507 C71.2286367,11.1981353 71.4021616,10.7596328 71.5875537,10.2897522 C71.7729458,9.82013532 71.9583379,9.3320607 72.1437301,8.825001 C72.3291222,8.31846866 72.4989551,7.83039403 72.6537562,7.36051343 C72.8082936,6.89063284 72.9346134,6.45186667 73.0337705,6.04395124 C73.1326638,5.6362995 73.1822424,5.29034925 73.1822424,5.00583682 C73.1822424,4.61031443 73.0522306,4.41255323 72.7927343,4.41255323 L72.7927343,4.41255323 Z M69.1584687,25.2331154 C69.603357,24.6648816 70.0914947,24.0404836 70.6231455,23.3604488 C71.1545326,22.6809413 71.6769533,22.0320209 72.190144,21.4139512 C72.7028073,20.7958816 73.1727486,20.2458418 73.5994406,19.7638318 C74.0258688,19.2818219 74.36237,18.9543294 74.609999,18.7810905 C74.9929142,18.5094985 75.4628555,18.2777224 76.0190319,18.0857622 C76.5754719,17.8943294 77.1933578,17.7986129 77.8734805,17.7986129 C78.2192117,17.7986129 78.5501749,17.8790358 78.8653151,18.0396179 C79.1807191,18.2002 79.4557745,18.4288119 79.6904815,18.7254537 C79.9251884,19.0220955 80.1105805,19.3809662 80.2469215,19.8007473 C80.3827351,20.2210557 80.4507737,20.6906726 80.4507737,21.2098617 C80.4507737,21.7169214 80.3270911,22.2268816 80.0799895,22.7394786 C79.8323605,23.2523393 79.5235494,23.7683642 79.1527652,24.2875532 C78.781981,24.8067423 78.3800783,25.3259313 77.9475846,25.8448567 C77.5145634,26.3640458 77.1131882,26.8861353 76.742404,27.4116527 C76.371356,27.9371701 76.0622812,28.458996 75.8151797,28.9781851 C75.5675506,29.4973741 75.4443954,30.0165632 75.4443954,30.5354886 C75.4443954,30.9805831 75.5525188,31.2988468 75.7687657,31.4902796 C75.9847488,31.6822398 76.3220412,31.7776925 76.7793242,31.7776925 C77.0266895,31.7776925 77.2954157,31.6943692 77.5860304,31.5274587 C77.8761176,31.3605483 78.1762261,31.1411652 78.4853008,30.8693095 C78.7941119,30.5977174 79.1063512,30.2944836 79.4217552,29.9609264 C79.7368954,29.6271055 80.039641,29.2872199 80.3302557,28.941006 C80.6206066,28.5953194 80.8959258,28.264399 81.155422,27.9492995 C81.4149182,27.6339363 81.6496252,27.3652448 81.8600703,27.1426975 L82.9726867,31.6851403 C82.5892441,32.2412448 82.1040073,32.7575333 81.5169762,33.2332149 C80.9296814,33.7088965 80.2930718,34.1231403 79.6071473,34.4754189 C78.9209591,34.8276975 78.2099817,35.1029811 77.4747424,35.3004786 C76.7392394,35.4982398 76.0311628,35.5971204 75.3515675,35.5971204 C74.4615271,35.5971204 73.7352541,35.4887473 73.1727486,35.2725284 C72.6102431,35.0565731 72.1682556,34.7691602 71.8470499,34.4105532 C71.5253168,34.0519463 71.3061691,33.6474587 71.1888156,33.1960358 C71.0711984,32.7448766 71.0126535,32.2784239 71.0126535,31.7964139 C71.0126535,31.5119015 71.0464092,31.1630507 71.1147115,30.748807 C71.1824864,30.3348269 71.3122345,29.8681104 71.5039558,29.3489214 C71.6954134,28.829996 71.9644034,28.2583343 72.3106621,27.6339363 C72.6563933,27.0100657 73.1078746,26.3392597 73.6643146,25.6225731 C73.8866269,25.4000259 74.0907429,25.1991005 74.276135,25.019797 C74.4615271,24.8410209 74.62213,24.6799114 74.7582072,24.5377871 C74.8942845,24.3959264 74.9992434,24.2627672 75.0733475,24.1393642 C75.1477153,24.0159612 75.1846355,23.8862299 75.1846355,23.7499065 C75.1846355,23.4904438 75.1384852,23.2802896 75.0456573,23.1194438 C74.9528294,22.9591254 74.8199167,22.8784388 74.6469192,22.8784388 C74.4364741,22.8784388 74.164847,23.0147622 73.8312467,23.2863542 C73.4973826,23.55821 73.1326638,24.0344189 72.7370903,24.7139264 L67.2855599,34.2805582 C67.0010107,34.7749612 66.7074952,35.1180109 66.4047496,35.3097075 C66.1017403,35.501404 65.7525807,35.5971204 65.3572709,35.5971204 C64.8256202,35.5971204 64.4049937,35.4829463 64.0961826,35.2540706 C63.7871078,35.0254587 63.5521372,34.7164239 63.391798,34.3269662 C63.2309315,33.9377721 63.1288735,33.4866129 63.0856241,32.9734886 C63.0421111,32.4608915 63.0207501,31.9140159 63.0207501,31.3328617 C63.0207501,30.6283045 63.0455394,29.6951353 63.0951179,28.5333542 C63.144169,27.3715731 63.2182731,26.0950905 63.3174302,24.7046975 C63.4163236,23.3143045 63.5492363,21.8587821 63.7161683,20.338394 C63.8831003,18.8182697 64.083788,17.3413891 64.3187586,15.9074886 C64.4049937,15.4006925 64.5162817,14.7857871 64.6526227,14.0627721 C64.7884362,13.3394935 64.9585329,12.564006 65.1623851,11.7357821 C65.366501,10.9080856 65.6075371,10.0458468 65.8857572,9.14959303 C66.1637135,8.2533393 66.4851829,7.38213532 66.8499017,6.53545373 C67.2143567,5.68903582 67.6254894,4.88243383 68.0830361,4.11591144 C68.5400554,3.34965274 69.0532461,2.67911045 69.6220808,2.10428458 C70.1903881,1.52945871 70.8148668,1.075399 71.4947258,0.741578109 C72.1743211,0.407757214 72.9161533,0.241110448 73.7199586,0.241110448 C74.3502391,0.241110448 74.8694953,0.342891542 75.2774634,0.546981095 C75.6854315,0.750806965 76.0098018,1.0353194 76.2508379,1.39972736 C76.4918741,1.764399 76.661707,2.200001 76.7608641,2.70679701 C76.8597574,3.21385672 76.9090723,3.76363284 76.9090723,4.35691642 C76.9090723,5.40742388 76.7761596,6.53861791 76.5105979,7.74970746 C76.2445088,8.96132438 75.9080076,10.1755781 75.5000394,11.392996 C75.0920713,12.6104139 74.6469192,13.7938169 74.164847,14.9434687 C73.6827747,16.0928567 73.2191626,17.1309711 72.7742742,18.0580756 C72.3291222,18.9851801 71.9364495,19.7667323 71.5967838,20.4035234 C71.2565905,21.0403144 71.0311136,21.4574587 70.9198256,21.6549562 L68.7133166,24.9549313 L69.1584687,25.2331154 Z" id="Fill-10"></path>
                        <path d="M82.3977338,49.2425373 C82.91699,49.2425373 83.4082923,49.0911841 83.8719044,48.7882139 C84.3355166,48.4852438 84.7619448,48.0865572 85.1511891,47.5924179 C85.5406972,47.0980149 85.8959222,46.5355821 86.2173916,45.9053831 C86.538861,45.2749204 86.8228828,44.6289005 87.0705118,43.9678507 C87.3176134,43.3065373 87.5275311,42.6607811 87.7007923,42.0303184 C87.8740535,41.4001194 88.0096033,40.8374229 88.1087604,40.3432836 C87.6266882,40.6647114 87.1353859,41.0478408 86.6345898,41.4926716 C86.1340575,41.9377662 85.6453923,42.4166119 85.169913,42.9297363 C84.6939062,43.4423333 84.2426887,43.9707512 83.8162604,44.5147264 C83.3898322,45.0587015 83.0158833,45.580791 82.6944139,46.0815224 C82.3726808,46.58199 82.1195138,47.0484428 81.9341217,47.4811443 C81.7487295,47.9138458 81.6559016,48.2719254 81.6559016,48.5564378 C81.6559016,49.0136617 81.9032669,49.2425373 82.3977338,49.2425373 L82.3977338,49.2425373 Z M91.0755617,21.358209 C91.1744551,20.9381642 91.3506172,20.564 91.6040479,20.2365075 C91.857215,19.9092786 92.1480934,19.633995 92.4756282,19.4114478 C92.8028994,19.1889005 93.1459935,19.0222537 93.5046468,18.9109801 C93.8633001,18.7997065 94.2029659,18.7440697 94.5244353,18.7440697 C94.9076142,18.7440697 95.2290836,18.827393 95.4888435,18.9943035 C95.7483397,19.1612139 95.8780878,19.4238408 95.8780878,19.7821841 C95.8780878,19.8934577 95.8596277,20.0231891 95.8224438,20.1716418 C95.7483397,20.4933333 95.6555118,20.9318358 95.5444875,21.4879403 C95.4331995,22.0443085 95.3126814,22.6745075 95.1826696,23.3790647 C95.0529215,24.0836219 94.9200088,24.8282587 94.7841952,25.6132388 C94.6478542,26.3982189 94.5181061,27.1797711 94.3946872,27.9584229 C94.0856124,29.7878458 93.7704722,31.7530647 93.4490028,33.8543433 C93.8200507,33.6441891 94.221426,33.3844627 94.6544471,33.0754279 C95.0869408,32.7669204 95.5690131,32.3524129 96.1006639,31.8334876 C96.6320509,31.3142985 97.2254112,30.6624776 97.8807447,29.8774975 C98.5358144,29.0925174 99.2713174,28.113204 100.087254,26.9387662 L100.977294,31.0545721 C100.754718,31.4379652 100.467532,31.8305871 100.115208,32.2319104 C99.7628834,32.6337612 99.3733754,33.0356119 98.9469471,33.437199 C98.5205189,33.8387861 98.0753668,34.2282438 97.6117547,34.6050448 C97.1484062,34.9823731 96.6940241,35.3375522 96.2488721,35.6711095 C95.1982288,36.4618905 94.0671523,37.2284129 92.8556425,37.9701493 C92.6209356,39.2927761 92.3427155,40.5811244 92.0212461,41.8357214 C91.699513,43.0900547 91.3194987,44.2644925 90.8809396,45.3585075 C90.4421167,46.4522587 89.9413206,47.4563582 89.3790788,48.3710697 C88.8163096,49.2857811 88.1799636,50.0704975 87.4689862,50.7257463 C86.7580087,51.3807313 85.9639608,51.8906915 85.0863151,52.2553632 C84.2084056,52.6197711 83.2384594,52.8022388 82.1751578,52.8022388 C81.754795,52.8022388 81.3006766,52.7587313 80.8122752,52.6725075 C80.3238738,52.5860199 79.87292,52.4127811 79.4586226,52.1533184 C79.044589,51.8938557 78.7014949,51.5228557 78.4296041,51.0408458 C78.1579769,50.5588358 78.0216359,49.9162438 78.0216359,49.112806 C78.0216359,48.5564378 78.1637787,47.9291393 78.4480642,47.2309104 C78.7328771,46.5326816 79.1221214,45.79701 79.6163246,45.0246866 C80.1105278,44.2520995 80.6980863,43.4486617 81.3779453,42.6143731 C82.0575406,41.7800846 82.7964719,40.9486965 83.5936844,40.1207363 C84.3911606,39.2927761 85.225557,38.4769453 86.0968735,37.6735075 C86.9684538,36.869806 87.8492642,36.1038109 88.7393046,35.3744677 L89.2398369,33.6502537 C88.5723726,34.2435373 87.8769543,34.7229104 87.153846,35.0870547 C86.4307376,35.4517264 85.7289902,35.634194 85.0493949,35.634194 C84.4560346,35.634194 83.8779699,35.5136915 83.3154644,35.2726866 C82.7529588,35.0314179 82.2555911,34.6857313 81.8228336,34.2343085 C81.3900762,33.7831493 81.0440813,33.2331095 80.784585,32.5841891 C80.5248251,31.9352687 80.395077,31.2030249 80.395077,30.387194 C80.395077,29.3119005 80.4475564,28.3230945 80.552779,27.4207761 C80.6574741,26.5187214 80.8093743,25.6593831 81.0071611,24.8438159 C81.2046841,24.0279851 81.4520494,23.2401045 81.7487295,22.4799104 C82.0454097,21.7197164 82.3853392,20.9502935 82.768518,20.1716418 C83.0528035,19.6155373 83.4607717,19.1920647 83.9924225,18.9017512 C84.5238096,18.6114378 85.042802,18.4658856 85.5499272,18.4658856 C85.9826847,18.4658856 86.3534689,18.5742587 86.6625437,18.7904776 C86.9713547,19.0066965 87.1261558,19.3436816 87.1261558,19.8009055 C87.1261558,19.9369652 87.1103329,20.0854179 87.0797419,20.2457363 C87.0488871,20.4065821 86.996144,20.5795572 86.9220399,20.7649254 C86.6994639,21.3334229 86.4797887,22.0042289 86.2638056,22.7765522 C86.0475587,23.5491393 85.8558374,24.3404478 85.6889054,25.1496866 C85.5222371,25.9591891 85.3893244,26.753398 85.290431,27.5320498 C85.1912739,28.3107015 85.1419591,28.996801 85.1419591,29.5900846 C85.1419591,29.8991194 85.1633201,30.1989254 85.2068332,30.4892388 C85.2500825,30.7795522 85.3273512,31.0392786 85.4386392,31.2678905 C85.5499272,31.4967662 85.6983992,31.6821343 85.8837913,31.823995 C86.0691834,31.9661194 86.3038904,32.0373134 86.5884396,32.0373134 C87.0454588,32.0373134 87.4597561,31.8398159 87.8308041,31.4440299 C88.2015883,31.0485075 88.5230577,30.5725622 88.7949486,30.0164577 C89.0665757,29.4603532 89.2862509,28.8855274 89.4531829,28.2922438 C89.6201149,27.6989602 89.7282384,27.2048209 89.7775532,26.8090348 L91.0755617,21.358209 Z" id="Fill-12"></path>
                    </g>
                    <g id="Page-1">
                        <g id="Group-3" transform="translate(0.000000, 98.387097)">
                            <mask id="mask-3" fill="white">
                                <use xlink:href="#path-2"></use>
                            </mask>
                            <g id="Clip-2"></g>
                            <path d="M11.0630413,1.83761248 C16.7399777,2.4621457 25.4336597,2.96203888 36.2872916,2.96203888 C47.1409234,2.96203888 55.8346054,2.4621457 61.5115418,1.83761248 C55.8346054,1.21307926 47.1409234,0.713186071 36.2872916,0.713186071 C25.4336597,0.713186071 16.7399777,1.21307926 11.0630413,1.83761248 M36.2872916,7.46041102 C27.122638,7.46041102 18.4954775,7.1051536 11.9943409,6.46129118 C8.77071376,6.14135954 6.2189528,5.76477334 4.40890546,5.34086392 C2.97803011,5.00560222 -0.000133042803,4.30775134 -0.000133042803,1.83761248 C-0.000133042803,-0.632526383 2.97803011,-1.33037727 4.40890546,-1.66563897 C6.2189528,-2.08954839 8.77071376,-2.46680111 11.9943409,-2.78606623 C18.4954775,-3.42992865 27.1233033,-3.78518607 36.2872916,-3.78518607 C45.4519451,-3.78518607 54.0791056,-3.42992865 60.5802422,-2.78606623 C63.8038693,-2.46680111 66.3562955,-2.08954839 68.1663429,-1.66563897 C69.5972182,-1.33037727 72.5747161,-0.632526383 72.5747161,1.83761248 C72.5747161,4.30775134 69.5972182,5.00560222 68.1663429,5.34086392 C66.3562955,5.76477334 63.8038693,6.14135954 60.5802422,6.46129118 C54.0797708,7.1051536 45.4519451,7.46041102 36.2872916,7.46041102" id="Fill-1" fill="#110C45" mask="url(#mask-3)"></path>
                        </g>
                        <g id="Group-3-Copy" transform="translate(88.654493, 98.387097)">
                            <mask id="mask-5" fill="white">
                                <use xlink:href="#path-4"></use>
                            </mask>
                            <g id="Clip-2"></g>
                            <path d="M11.0630413,1.83761248 C16.7399777,2.4621457 25.4336597,2.96203888 36.2872916,2.96203888 C47.1409234,2.96203888 55.8346054,2.4621457 61.5115418,1.83761248 C55.8346054,1.21307926 47.1409234,0.713186071 36.2872916,0.713186071 C25.4336597,0.713186071 16.7399777,1.21307926 11.0630413,1.83761248 M36.2872916,7.46041102 C27.122638,7.46041102 18.4954775,7.1051536 11.9943409,6.46129118 C8.77071376,6.14135954 6.2189528,5.76477334 4.40890546,5.34086392 C2.97803011,5.00560222 -0.000133042803,4.30775134 -0.000133042803,1.83761248 C-0.000133042803,-0.632526383 2.97803011,-1.33037727 4.40890546,-1.66563897 C6.2189528,-2.08954839 8.77071376,-2.46680111 11.9943409,-2.78606623 C18.4954775,-3.42992865 27.1233033,-3.78518607 36.2872916,-3.78518607 C45.4519451,-3.78518607 54.0791056,-3.42992865 60.5802422,-2.78606623 C63.8038693,-2.46680111 66.3562955,-2.08954839 68.1663429,-1.66563897 C69.5972182,-1.33037727 72.5747161,-0.632526383 72.5747161,1.83761248 C72.5747161,4.30775134 69.5972182,5.00560222 68.1663429,5.34086392 C66.3562955,5.76477334 63.8038693,6.14135954 60.5802422,6.46129118 C54.0797708,7.1051536 45.4519451,7.46041102 36.2872916,7.46041102" id="Fill-1" fill="#792A89" mask="url(#mask-5)"></path>
                        </g>
                        <g id="Group-6" transform="translate(0.000000, 91.612903)">
                            <mask id="mask-7" fill="white">
                                <use xlink:href="#path-6"></use>
                            </mask>
                            <g id="Clip-5"></g>
                            <path d="M11.0631743,3.68731468 C16.7401107,4.3118479 25.4337927,4.81174108 36.2874246,4.81174108 C47.1410565,4.81174108 55.8347385,4.3118479 61.5116749,3.68731468 C55.8347385,3.06278146 47.1410565,2.56288827 36.2874246,2.56288827 C25.4337927,2.56288827 16.7401107,3.06278146 11.0631743,3.68731468 M36.2874246,9.31011322 C27.1227711,9.31011322 18.4956105,8.9548558 11.9944739,8.31099338 C8.77084681,7.99172826 6.21908584,7.61514206 4.4090385,7.19056612 C2.97816315,6.85530442 0,6.15745354 0,3.68731468 C0,1.21717582 2.97816315,0.519991455 4.4090385,0.184063234 C6.21908584,-0.239846187 8.77084681,-0.616432386 11.9944739,-0.936364025 C18.4956105,-1.58022645 27.1234363,-1.93548387 36.2874246,-1.93548387 C45.4520781,-1.93548387 54.0792387,-1.58022645 60.5803753,-0.936364025 C63.8040024,-0.616432386 66.3564286,-0.239846187 68.1664759,0.184063234 C69.5973513,0.519991455 72.5748492,1.21717582 72.5748492,3.68731468 C72.5748492,6.15745354 69.5973513,6.85530442 68.1664759,7.19056612 C66.3564286,7.61514206 63.8040024,7.99172826 60.5803753,8.31099338 C54.0799039,8.9548558 45.4520781,9.31011322 36.2874246,9.31011322" id="Fill-4" fill="#110C45" mask="url(#mask-7)"></path>
                        </g>
                        <g id="Group-6-Copy" transform="translate(88.654493, 91.612903)">
                            <mask id="mask-9" fill="white">
                                <use xlink:href="#path-8"></use>
                            </mask>
                            <g id="Clip-5"></g>
                            <path d="M11.0631743,3.68731468 C16.7401107,4.3118479 25.4337927,4.81174108 36.2874246,4.81174108 C47.1410565,4.81174108 55.8347385,4.3118479 61.5116749,3.68731468 C55.8347385,3.06278146 47.1410565,2.56288827 36.2874246,2.56288827 C25.4337927,2.56288827 16.7401107,3.06278146 11.0631743,3.68731468 M36.2874246,9.31011322 C27.1227711,9.31011322 18.4956105,8.9548558 11.9944739,8.31099338 C8.77084681,7.99172826 6.21908584,7.61514206 4.4090385,7.19056612 C2.97816315,6.85530442 0,6.15745354 0,3.68731468 C0,1.21717582 2.97816315,0.519991455 4.4090385,0.184063234 C6.21908584,-0.239846187 8.77084681,-0.616432386 11.9944739,-0.936364025 C18.4956105,-1.58022645 27.1234363,-1.93548387 36.2874246,-1.93548387 C45.4520781,-1.93548387 54.0792387,-1.58022645 60.5803753,-0.936364025 C63.8040024,-0.616432386 66.3564286,-0.239846187 68.1664759,0.184063234 C69.5973513,0.519991455 72.5748492,1.21717582 72.5748492,3.68731468 C72.5748492,6.15745354 69.5973513,6.85530442 68.1664759,7.19056612 C66.3564286,7.61514206 63.8040024,7.99172826 60.5803753,8.31099338 C54.0799039,8.9548558 45.4520781,9.31011322 36.2874246,9.31011322" id="Fill-4" fill="#792A89" mask="url(#mask-9)"></path>
                        </g>
                        <g id="Group-3" transform="translate(0.000000, 88.709677)">
                            <mask id="mask-11" fill="white">
                                <use xlink:href="#path-10"></use>
                            </mask>
                            <g id="Clip-2"></g>
                            <path d="M11.0630413,1.83761248 C16.7399777,2.4621457 25.4336597,2.96203888 36.2872916,2.96203888 C47.1409234,2.96203888 55.8346054,2.4621457 61.5115418,1.83761248 C55.8346054,1.21307926 47.1409234,0.713186071 36.2872916,0.713186071 C25.4336597,0.713186071 16.7399777,1.21307926 11.0630413,1.83761248 M36.2872916,7.46041102 C27.122638,7.46041102 18.4954775,7.1051536 11.9943409,6.46129118 C8.77071376,6.14135954 6.2189528,5.76477334 4.40890546,5.34086392 C2.97803011,5.00560222 -0.000133042803,4.30775134 -0.000133042803,1.83761248 C-0.000133042803,-0.632526383 2.97803011,-1.33037727 4.40890546,-1.66563897 C6.2189528,-2.08954839 8.77071376,-2.46680111 11.9943409,-2.78606623 C18.4954775,-3.42992865 27.1233033,-3.78518607 36.2872916,-3.78518607 C45.4519451,-3.78518607 54.0791056,-3.42992865 60.5802422,-2.78606623 C63.8038693,-2.46680111 66.3562955,-2.08954839 68.1663429,-1.66563897 C69.5972182,-1.33037727 72.5747161,-0.632526383 72.5747161,1.83761248 C72.5747161,4.30775134 69.5972182,5.00560222 68.1663429,5.34086392 C66.3562955,5.76477334 63.8038693,6.14135954 60.5802422,6.46129118 C54.0797708,7.1051536 45.4519451,7.46041102 36.2872916,7.46041102" id="Fill-1" fill="#27225C" mask="url(#mask-11)"></path>
                        </g>
                        <g id="Group-3-Copy-2" transform="translate(88.654493, 88.709677)">
                            <mask id="mask-13" fill="white">
                                <use xlink:href="#path-12"></use>
                            </mask>
                            <g id="Clip-2"></g>
                            <path d="M11.0630413,1.83761248 C16.7399777,2.4621457 25.4336597,2.96203888 36.2872916,2.96203888 C47.1409234,2.96203888 55.8346054,2.4621457 61.5115418,1.83761248 C55.8346054,1.21307926 47.1409234,0.713186071 36.2872916,0.713186071 C25.4336597,0.713186071 16.7399777,1.21307926 11.0630413,1.83761248 M36.2872916,7.46041102 C27.122638,7.46041102 18.4954775,7.1051536 11.9943409,6.46129118 C8.77071376,6.14135954 6.2189528,5.76477334 4.40890546,5.34086392 C2.97803011,5.00560222 -0.000133042803,4.30775134 -0.000133042803,1.83761248 C-0.000133042803,-0.632526383 2.97803011,-1.33037727 4.40890546,-1.66563897 C6.2189528,-2.08954839 8.77071376,-2.46680111 11.9943409,-2.78606623 C18.4954775,-3.42992865 27.1233033,-3.78518607 36.2872916,-3.78518607 C45.4519451,-3.78518607 54.0791056,-3.42992865 60.5802422,-2.78606623 C63.8038693,-2.46680111 66.3562955,-2.08954839 68.1663429,-1.66563897 C69.5972182,-1.33037727 72.5747161,-0.632526383 72.5747161,1.83761248 C72.5747161,4.30775134 69.5972182,5.00560222 68.1663429,5.34086392 C66.3562955,5.76477334 63.8038693,6.14135954 60.5802422,6.46129118 C54.0797708,7.1051536 45.4519451,7.46041102 36.2872916,7.46041102" id="Fill-1" fill="#EF3260" mask="url(#mask-13)"></path>
                        </g>
                        <g id="Group-6" transform="translate(0.000000, 81.935484)">
                            <mask id="mask-15" fill="white">
                                <use xlink:href="#path-14"></use>
                            </mask>
                            <g id="Clip-5"></g>
                            <path d="M11.0631743,3.68731468 C16.7401107,4.3118479 25.4337927,4.81174108 36.2874246,4.81174108 C47.1410565,4.81174108 55.8347385,4.3118479 61.5116749,3.68731468 C55.8347385,3.06278146 47.1410565,2.56288827 36.2874246,2.56288827 C25.4337927,2.56288827 16.7401107,3.06278146 11.0631743,3.68731468 M36.2874246,9.31011322 C27.1227711,9.31011322 18.4956105,8.9548558 11.9944739,8.31099338 C8.77084681,7.99172826 6.21908584,7.61514206 4.4090385,7.19056612 C2.97816315,6.85530442 0,6.15745354 0,3.68731468 C0,1.21717582 2.97816315,0.519991455 4.4090385,0.184063234 C6.21908584,-0.239846187 8.77084681,-0.616432386 11.9944739,-0.936364025 C18.4956105,-1.58022645 27.1234363,-1.93548387 36.2874246,-1.93548387 C45.4520781,-1.93548387 54.0792387,-1.58022645 60.5803753,-0.936364025 C63.8040024,-0.616432386 66.3564286,-0.239846187 68.1664759,0.184063234 C69.5973513,0.519991455 72.5748492,1.21717582 72.5748492,3.68731468 C72.5748492,6.15745354 69.5973513,6.85530442 68.1664759,7.19056612 C66.3564286,7.61514206 63.8040024,7.99172826 60.5803753,8.31099338 C54.0799039,8.9548558 45.4520781,9.31011322 36.2874246,9.31011322" id="Fill-4" fill="#27225C" mask="url(#mask-15)"></path>
                        </g>
                        <g id="Group-6-Copy-2" transform="translate(88.654493, 81.935484)">
                            <mask id="mask-17" fill="white">
                                <use xlink:href="#path-16"></use>
                            </mask>
                            <g id="Clip-5"></g>
                            <path d="M11.0631743,3.68731468 C16.7401107,4.3118479 25.4337927,4.81174108 36.2874246,4.81174108 C47.1410565,4.81174108 55.8347385,4.3118479 61.5116749,3.68731468 C55.8347385,3.06278146 47.1410565,2.56288827 36.2874246,2.56288827 C25.4337927,2.56288827 16.7401107,3.06278146 11.0631743,3.68731468 M36.2874246,9.31011322 C27.1227711,9.31011322 18.4956105,8.9548558 11.9944739,8.31099338 C8.77084681,7.99172826 6.21908584,7.61514206 4.4090385,7.19056612 C2.97816315,6.85530442 0,6.15745354 0,3.68731468 C0,1.21717582 2.97816315,0.519991455 4.4090385,0.184063234 C6.21908584,-0.239846187 8.77084681,-0.616432386 11.9944739,-0.936364025 C18.4956105,-1.58022645 27.1234363,-1.93548387 36.2874246,-1.93548387 C45.4520781,-1.93548387 54.0792387,-1.58022645 60.5803753,-0.936364025 C63.8040024,-0.616432386 66.3564286,-0.239846187 68.1664759,0.184063234 C69.5973513,0.519991455 72.5748492,1.21717582 72.5748492,3.68731468 C72.5748492,6.15745354 69.5973513,6.85530442 68.1664759,7.19056612 C66.3564286,7.61514206 63.8040024,7.99172826 60.5803753,8.31099338 C54.0799039,8.9548558 45.4520781,9.31011322 36.2874246,9.31011322" id="Fill-4" fill="#EF3260" mask="url(#mask-17)"></path>
                        </g>
                        <path d="M99.591053,80.8931408 C105.267989,81.517674 113.961671,82.0175672 124.815303,82.0175672 C135.668935,82.0175672 144.362617,81.517674 150.039554,80.8931408 C144.362617,80.2686076 135.668935,79.7687144 124.815303,79.7687144 C113.961671,79.7687144 105.267989,80.2686076 99.591053,80.8931408 M124.815303,86.5159393 C115.65065,86.5159393 107.022824,86.1606819 100.522353,85.5168195 C97.2987255,85.1968878 94.7462993,84.8203016 92.936252,84.3957257 C91.5060418,84.060464 88.5278787,83.3626131 88.5278787,80.8931408 C88.5278787,78.4223354 91.5060418,77.725151 92.936252,77.3898893 C94.7462993,76.9653134 97.2987255,76.5887272 100.522353,76.2694621 C107.023489,75.6249331 115.65065,75.2696757 124.815303,75.2696757 C133.979292,75.2696757 142.607117,75.6249331 149.108254,76.2694621 C152.331881,76.5887272 154.883642,76.9653134 156.693689,77.3898893 C158.124565,77.725151 161.102728,78.4223354 161.102728,80.8931408 C161.102728,83.3626131 158.124565,84.060464 156.693689,84.3957257 C154.883642,84.8203016 152.331881,85.1968878 149.108254,85.5168195 C142.607117,86.1606819 133.979957,86.5159393 124.815303,86.5159393" id="Fill-41" fill="#EF3260"></path>
                        <path d="M94.2024203,12.625128 C92.4755247,18.0799624 90.2789881,26.5221585 88.1463119,37.1852134 C86.0136358,47.8496014 84.7949637,56.4877556 84.2920619,62.1872044 C86.0182923,56.7330365 88.214829,48.2915069 90.3475051,37.627119 C92.479516,26.9633976 93.6981881,18.3252433 94.2024203,12.625128 M82.6276964,73.1068712 C82.4567364,73.1068712 82.2851112,73.0902081 82.1181425,73.0562153 C79.7007548,72.5709857 79.6036335,69.5083068 79.5557381,68.0372878 C79.4971993,66.1756855 79.6295769,63.5942371 79.95021,60.3642606 C80.5967981,53.8509857 81.9445217,45.3048118 83.7445908,36.3014023 C85.5213774,27.4166341 87.5389715,19.0897466 89.4268489,12.8544123 C90.362805,9.76507242 91.2249224,7.3235941 91.9925794,5.59662978 C92.8294186,3.71436531 93.8871089,1.7047947 95.8667858,1.7047947 C96.0377458,1.7047947 96.2087058,1.72212433 96.3763397,1.75545054 C98.792397,2.2406802 98.8908487,5.30335911 98.9374137,6.77504465 C98.997283,8.63664687 98.8649054,11.2180953 98.543607,14.4474053 C97.8976842,20.9613467 96.5492954,29.5068541 94.7492263,38.5109301 C92.9724396,47.3950318 90.9541803,55.7219192 89.0669681,61.9579201 C88.1316772,65.0465935 87.2688946,67.4887383 86.5019029,69.2143696 C85.6650636,71.0979671 84.6067081,73.1068712 82.6276964,73.1068712" id="Fill-27" fill="#02A34F"></path>
                        <path d="M107.008455,16.5116975 C104.270434,21.5339577 100.499336,29.3976108 96.3663615,39.4541286 C92.2340521,49.5106464 89.3856056,57.7548849 87.8004006,63.2523768 C90.5384215,58.2307832 94.3095198,50.3664636 98.4418293,40.3106123 C102.574804,30.2540944 105.42325,22.009856 107.008455,16.5116975 M84.5827604,73.6988114 C84.2381796,73.6988114 83.9035769,73.6328255 83.5882655,73.5028532 C81.3085771,72.5623875 81.7988398,69.5377005 82.0343255,68.0840111 C82.3316762,66.2457372 82.955647,63.7376065 83.888277,60.6289374 C85.768837,54.3609434 88.7263786,46.2326802 92.2154261,37.7418278 C95.6106784,29.4802598 99.1429648,21.7725734 102.162371,16.0384653 C107.018434,6.81576928 108.68679,6.0659295 110.226096,6.0659295 C110.570011,6.0659295 110.905279,6.1319154 111.220591,6.26188763 C113.500279,7.20235334 113.010016,10.2263739 112.77453,11.6800632 C112.47718,13.5183371 111.853209,16.0264678 110.920579,19.1351369 C109.040019,25.4037975 106.082477,33.5320607 102.59343,42.0229131 C99.1981776,50.2844811 95.6658912,57.991501 92.6464848,63.7256091 C87.7897572,72.9483051 86.1214005,73.6988114 84.5827604,73.6988114" id="Fill-29" fill="#32B34B"></path>
                        <path d="M119.115484,22.97385 C115.446163,27.3589131 110.206937,34.3274241 104.182759,43.3741577 C98.1585811,52.4222243 93.7495426,59.9452835 91.117956,65.0235317 C94.7872765,60.6384687 100.026502,53.6699577 106.050015,44.6225576 C112.073528,35.575824 116.483897,28.0527648 119.115484,22.97385 M86.4521449,74.6854672 C85.9199737,74.6854672 85.4097545,74.5328332 84.9780306,74.2442282 C82.927841,72.8738543 84.0008312,70.0044674 84.5163721,68.6254288 C85.168947,66.8818013 86.2725371,64.5449673 87.7958772,61.6809126 C90.8691659,55.9048135 95.3626866,48.5170587 100.448248,40.8780244 C105.312958,33.5729186 110.220242,26.794367 114.266739,21.7907695 C116.267702,19.3166315 117.983289,17.3677146 119.366934,15.9980073 C121.319338,14.0650869 122.556636,13.3119145 123.781295,13.3119145 C124.313466,13.3119145 124.823685,13.4638821 125.254744,13.7531536 C127.306264,15.124194 126.232608,17.9929143 125.717067,19.371953 C125.064492,21.1155804 123.960902,23.4524144 122.436897,26.3164691 C119.364274,32.0925683 114.870753,39.480323 109.784526,47.1193574 C104.920482,54.4244631 100.013198,61.2030147 95.9667009,66.2066123 C93.9657372,68.6800837 92.2501502,70.6296672 90.8665051,71.9993745 C88.9147672,73.9322948 87.6768039,74.6854672 86.4521449,74.6854672" id="Fill-31" fill="#E8E219"></path>
                        <path d="M129.686799,31.6607938 C125.23186,35.2413621 118.732054,41.0467883 111.056815,48.7364785 C103.382241,56.4268353 97.5875614,62.9394437 94.0146969,67.4031566 C98.4696352,63.8225883 104.969441,58.0171621 112.644015,50.3268054 C120.319255,42.6371151 126.113269,36.1245067 129.686799,31.6607938 M88.1335398,76.0199821 C87.381848,76.0199821 86.692021,75.7433745 86.1911149,75.2414817 C84.4482542,73.4951882 86.0613982,70.8917445 86.8370377,69.6406785 C87.8175632,68.0583499 89.3562032,65.9841265 91.4103841,63.4739962 C95.5526717,58.4130775 101.401899,52.049104 107.883079,45.5564913 C113.940518,39.486455 119.970017,33.8916505 124.85934,29.8025242 C132.94036,23.0439684 134.649295,23.0439684 135.56729,23.0439684 C136.318982,23.0439684 137.009474,23.3205759 137.509715,23.8224687 C139.253241,25.5687622 137.639432,28.1722059 136.864458,29.423272 C135.883932,31.0056005 134.345292,33.079824 132.291111,35.5899543 C128.148824,40.6508729 122.298932,47.0141799 115.818417,53.5074591 C109.760978,59.5774954 103.731478,65.1716334 98.8421551,69.2614262 C90.7611352,76.0199821 89.0522004,76.0199821 88.1335398,76.0199821" id="Fill-33" fill="#FAA747"></path>
                        <path d="M138.384605,42.2893894 C133.315674,44.9228267 125.803412,49.3365503 116.767145,55.3679282 C107.734204,61.3979731 100.776065,66.6428524 96.3976266,70.3160675 C101.467888,67.6826302 108.978819,63.2695732 118.01176,57.2401948 C127.046697,51.2094834 134.005501,45.9632711 138.384605,42.2893894 M89.6430435,77.6738287 C88.2095073,77.6738287 87.4904109,76.913991 87.1897342,76.4620876 C85.8227194,74.4065268 87.9154827,72.1710045 88.920621,71.0972339 C90.1925102,69.739524 92.1076614,68.007894 94.6135226,65.9510002 C99.6678187,61.8032198 106.651235,56.7163068 114.278579,51.624728 C116.837658,49.9157599 139.447617,34.9342944 145.135862,34.9342944 C146.570063,34.9342944 147.288494,35.6934655 147.589171,36.1460355 C148.956186,38.2015962 146.864088,40.436452 145.858284,41.5102226 C144.58706,42.868599 142.671244,44.600229 140.165383,46.6571228 C135.111752,50.8042367 128.12767,55.8924828 120.500326,60.983395 C117.941913,62.6910301 95.3312885,77.6738287 89.6430435,77.6738287" id="Fill-35" fill="#F78E30"></path>
                        <path d="M144.880154,54.5829626 C139.269739,56.1812878 130.966537,59.0586729 121.108731,63.0904781 C111.062669,67.1996001 103.205161,70.9527981 98.1847906,73.6802153 C103.79454,72.0818902 112.097742,69.204505 121.956879,65.1726999 C132.002941,61.0642444 139.859783,57.3110464 144.880154,54.5829626 M91.2007086,79.6469404 C89.0999627,79.6469404 88.2664496,78.6818133 87.9358382,77.8719863 C87.0045386,75.5858082 89.4984259,73.8121871 90.6971416,72.9597026 C92.2124991,71.8819329 94.4329835,70.5662141 97.2973951,69.0498714 C103.072783,65.9918581 110.926965,62.3966264 119.41177,58.9260346 C131.959702,53.7937979 146.861161,48.615571 151.864901,48.615571 C153.964316,48.615571 154.798495,49.5806981 155.128441,50.3905251 C156.060406,52.6780363 153.566518,54.4516573 152.368468,55.3034753 C150.85311,56.381245 148.631961,57.6969639 145.767549,59.21264 C139.991496,62.2713198 132.138644,65.8672181 123.653174,69.3371433 C111.105908,74.46938 96.2044484,79.6469404 91.2007086,79.6469404" id="Fill-37" fill="#F15E3D"></path>
                        <path d="M148.820815,67.7468165 C142.535873,68.2387114 133.501601,69.5544302 123.808103,71.4206981 C113.130087,73.4762589 104.676548,75.6144687 99.2204623,77.3027746 C105.504739,76.8108797 114.539011,75.4951609 124.231844,73.628893 C134.91119,71.5733322 143.36473,69.4351224 148.820815,67.7468165 M94.566625,82.013768 C92.4432619,82.013768 88.8883582,82.013768 88.3841259,79.3849964 C87.9191413,76.9588481 90.7117098,75.7111147 92.0541117,75.1119094 C93.7524031,74.3527383 96.1877516,73.5002538 99.2929706,72.5771177 C105.555961,70.7155155 113.961605,68.735272 122.961285,67.003642 C135.673525,64.5561649 147.365327,63.0358231 153.472657,63.0358231 C155.59735,63.0358231 159.151589,63.0358231 159.655821,65.6652613 C160.120805,68.090743 157.328237,69.3384764 155.985835,69.9383482 C154.288874,70.6968528 151.853526,71.5493373 148.747641,72.4731399 C142.485317,74.3347421 134.079672,76.3143192 125.079327,78.0466157 C112.366422,80.4934262 100.675285,82.013768 94.566625,82.013768" id="Fill-39" fill="#E92531"></path>
                        <g id="Group-9" transform="translate(0.000000, 75.165272)">
                            <mask id="mask-19" fill="white">
                                <use xlink:href="#path-18"></use>
                            </mask>
                            <g id="Clip-8"></g>
                            <path d="M11.0630413,5.7278684 C16.7399777,6.35240162 25.4336597,6.85229481 36.2872916,6.85229481 C47.1409234,6.85229481 55.8346054,6.35240162 61.5115418,5.7278684 C55.8346054,5.10333518 47.1409234,4.603442 36.2872916,4.603442 C25.4336597,4.603442 16.7399777,5.10333518 11.0630413,5.7278684 M36.2872916,11.350667 C27.122638,11.350667 18.4954775,10.9954095 11.9943409,10.3515471 C8.77071376,10.0316155 6.2189528,9.65502927 4.40890546,9.23045332 C2.97803011,8.89519163 -0.000133042803,8.19734074 -0.000133042803,5.7278684 C-0.000133042803,3.25706302 2.97803011,2.55987866 4.40890546,2.22461696 C6.2189528,1.80004102 8.77071376,1.42345482 11.9943409,1.1041897 C18.4954775,0.459660756 27.1233033,0.104403333 36.2872916,0.104403333 C45.4519451,0.104403333 54.0791056,0.459660756 60.5802422,1.1041897 C63.8038693,1.42345482 66.3562955,1.80004102 68.1663429,2.22461696 C69.5972182,2.55987866 72.5747161,3.25706302 72.5747161,5.7278684 C72.5747161,8.19734074 69.5972182,8.89519163 68.1663429,9.23045332 C66.3562955,9.65502927 63.8038693,10.0316155 60.5802422,10.3515471 C54.0797708,10.9954095 45.4519451,11.350667 36.2872916,11.350667" id="Fill-7" fill="#27225C" mask="url(#mask-19)"></path>
                        </g>
                        <path d="M12.4057758,67.211131 C17.8498873,68.9420944 26.2788141,71.1442905 36.9295557,73.2825003 C46.4846898,75.2007571 55.6014479,76.599125 61.8950377,77.1490075 C56.4509262,75.418044 48.020669,73.2158479 37.3699274,71.0776381 C27.8154584,69.1593813 18.6993656,67.7610135 12.4057758,67.211131 M66.8063128,81.9039915 C60.7714912,81.9039915 48.9845641,80.2903363 36.0474819,77.6935578 C27.0611058,75.8892767 18.6720918,73.8430472 12.4237365,71.9314557 C9.32516965,70.9836582 6.89713849,70.1118445 5.20549924,69.3393429 C3.86841907,68.7294732 1.08449841,67.459078 1.56943943,65.0369289 C2.08498029,62.4568135 5.47025442,62.4568135 7.49317025,62.4568135 C13.5279918,62.4568135 25.314919,64.0698022 38.2520011,66.6672472 C47.2377121,68.4715283 55.6280565,70.5170912 61.8757465,72.4280162 C64.9736482,73.3764802 67.4030098,74.248294 69.094649,75.020129 C70.4317292,75.6306652 73.2143194,76.9003939 72.7307088,79.322543 C72.2138375,81.9039915 68.8292286,81.9039915 66.8063128,81.9039915" id="Fill-10" fill="#253B80"></path>
                        <path d="M16.2990073,54.3851382 C21.3107297,57.128552 29.1582595,60.9064115 39.1936781,65.0461935 C49.0474933,69.112658 57.3407165,72.014038 62.9431489,73.6283598 C57.9314265,70.884946 50.0838968,67.1070865 40.0484781,62.9666379 C30.1946629,58.90084 21.9014398,55.9994599 16.2990073,54.3851382 M69.9298917,79.6157471 C64.9467735,79.6157471 50.0439839,74.3875309 37.4847433,69.2059714 C29.0099167,65.7093852 21.1670435,62.0901585 15.4009684,59.0141491 C12.5418785,57.4891416 10.3247202,56.1667575 8.81268877,55.0849887 C7.61596875,54.228505 5.12806833,52.4475522 6.06668531,50.1633736 C6.39729667,49.3582123 7.22947941,48.3984174 9.31226449,48.3984174 C14.2953827,48.3984174 29.1988375,53.6259671 41.7574129,58.8075266 C50.2322395,62.3041128 58.0751128,65.9233395 63.8418531,68.9993489 C66.7009429,70.5243563 68.9181012,71.8460739 70.4301327,72.9285093 C71.6261875,73.7843264 74.1140879,75.5659457 73.1754709,77.8501243 C72.8448596,78.6552856 72.013342,79.6157471 69.9298917,79.6157471" id="Fill-12" fill="#253B80"></path>
                        <path d="M22.7465276,42.2529306 C27.1229707,45.9294783 34.0777832,51.1790233 43.106733,57.2144003 C52.1356829,63.2497774 59.6439535,67.6681666 64.7128843,70.3056031 C60.3364413,66.6290553 53.3816287,61.3788438 44.3526789,55.3441333 C35.323729,49.3087562 27.8154584,44.8897005 22.7465276,42.2529306 M71.4648066,77.6680299 C65.7785571,77.6680299 43.1745849,62.6665687 40.6155066,60.9562675 C32.9914887,55.8600231 26.011398,50.7671113 20.9597628,46.6166648 C18.4558972,44.5584379 16.5414113,42.8254749 15.2708525,41.466432 C14.2657141,40.3919949 12.1749465,38.155806 13.5432917,36.1009118 C13.8439685,35.6490083 14.5623996,34.8905037 15.9946054,34.8905037 C21.6801896,34.8905037 44.2848271,49.891965 46.8439054,51.6015997 C54.4679232,56.6985106 61.4480139,61.7907558 66.4983187,65.9412023 C69.0035147,68.0000957 70.9180006,69.7330587 72.1885594,71.0921017 C73.1936978,72.1665388 75.2844654,74.4020611 73.9161202,76.4569554 C73.6154435,76.9095253 72.8963471,77.6680299 71.4648066,77.6680299" id="Fill-14" fill="#006DA6"></path>
                        <path d="M31.416395,31.6614604 C34.9892594,36.1245067 40.7832735,42.6371151 48.4585128,50.3268054 C56.133087,58.0171621 62.6328931,63.8225883 67.0878314,67.4024901 C63.5143017,62.9394437 57.7202876,56.4268353 50.0457135,48.7364785 C42.3711394,41.0467883 35.8713332,35.2413621 31.416395,31.6614604 M72.9689885,76.0199821 C72.0509932,76.0199821 70.3420583,76.0199821 62.2610385,69.2620927 C57.3710502,65.1716334 51.3415504,59.5768289 45.2841116,53.5074591 C38.8035966,47.0141799 32.9537046,40.6508729 28.8114169,35.5899543 C26.757236,33.079824 25.2192612,31.0056005 24.2380705,29.423272 C23.4630962,28.1722059 21.849287,25.5687622 23.5928129,23.8224687 C24.0937191,23.3205759 24.783546,23.0439684 25.5352378,23.0439684 C26.4532332,23.0439684 28.162168,23.0439684 36.2425226,29.8018577 C41.1331761,33.892317 47.1626759,39.486455 53.2194496,45.5564913 C59.7006297,52.049104 65.5505218,58.4130775 69.6921443,63.4739962 C71.7463251,65.9841265 73.2849652,68.0583499 74.2654906,69.6406785 C75.0411302,70.8917445 76.6542741,73.4951882 74.9107482,75.2414817 C74.4105073,75.7433745 73.7206803,76.0199821 72.9689885,76.0199821" id="Fill-16" fill="#019AC8"></path>
                        <path d="M42.0260264,22.9484555 C44.6542869,28.0287033 49.0586689,35.5544285 55.0768601,44.6058278 C61.0943861,53.655894 66.3289552,60.6277377 69.9949497,65.0154668 C67.3666891,59.935219 62.9623071,52.4094937 56.9447811,43.3587609 C50.9272551,34.3080282 45.692686,27.3355181 42.0260264,22.9484555 M74.6561043,74.6814014 C73.4321105,74.6814014 72.1948124,73.9275625 70.2430745,71.9933091 C68.8607598,70.6222687 67.1465033,68.6726853 65.1475351,66.1978808 C61.1030339,61.1902841 56.2004066,54.4077334 51.3410182,47.099295 C46.2594484,39.4575945 41.7712494,32.0665072 38.7019519,26.2884085 C37.1799422,23.4230207 36.0783478,21.0855202 35.4271033,19.3412262 C34.9122277,17.9621876 33.8405679,15.0921342 35.8920879,13.7224268 C36.3238118,13.4351549 36.8327005,13.2831874 37.3648717,13.2831874 C38.5895307,13.2831874 39.8261636,14.0370263 41.7779015,15.9706131 C43.1608815,17.3416535 44.875138,19.2919034 46.8741061,21.766708 C50.9179421,26.7736381 55.8218998,33.5561888 60.680623,40.8652937 C65.7621929,48.5069942 70.2503919,55.8980816 73.3190241,61.6761803 C74.8410338,64.5409015 75.9426282,66.8784021 76.5945379,68.622696 C77.1087484,70.0024012 78.1810734,72.8717881 76.1288881,74.2414954 C75.6978294,74.5294339 75.1889407,74.6814014 74.6561043,74.6814014" id="Fill-18" fill="#009A93"></path>
                        <path d="M54.2902446,16.4323145 C55.858154,21.9344721 58.6819875,30.1873753 62.7843623,40.2558906 C66.886072,50.3250724 70.6325573,58.2000564 73.3552783,63.2303149 C71.7873688,57.7281572 68.9642006,49.4745875 64.8624909,39.4060722 C60.7601161,29.3375569 57.0136307,21.462573 54.2902446,16.4323145 M76.5503012,73.6860808 C75.0096655,73.6860808 73.341974,72.9342414 68.5105246,63.6928827 C65.5077485,57.9487768 61.9980794,50.2290929 58.6281052,41.9555275 C55.1636706,33.4540107 52.2314072,25.3164162 50.3694732,19.0430899 C49.4468213,15.9317548 48.8301679,13.4216244 48.5388042,11.582684 C48.3073097,10.1283281 47.82636,7.10230805 50.1093745,6.16850758 C50.4226903,6.04053493 50.7546321,5.97588208 51.0958869,5.97588208 C52.6365225,5.97588208 54.3042141,6.7270549 59.1349982,15.9690801 C62.1377743,21.7131861 65.6474435,29.4328699 69.0187481,37.7057689 C72.4818523,46.2079521 75.4147809,54.3448802 77.2760497,60.6195394 C78.1987015,63.7308746 78.8153549,66.2410049 79.1080491,68.0792788 C79.3382131,69.5336347 79.8191629,72.5596548 77.5368136,73.4934552 C77.224163,73.6220944 76.8922212,73.6860808 76.5503012,73.6860808" id="Fill-20" fill="#00A268"></path>
                        <path d="M67.4405944,12.5184174 C67.8989268,18.2225319 69.0497471,26.869351 71.097941,37.5504021 C73.1454698,48.2301201 75.2754851,56.6896458 76.9591417,62.1578107 C76.5001441,56.4536962 75.349989,47.8055441 73.3024603,37.1264926 C71.2536011,26.4454416 69.1235858,17.9859158 67.4405944,12.5184174 M78.557651,73.0908079 C76.5679959,73.0908079 75.5216142,71.070573 74.6974141,69.176311 C73.9437266,67.4446811 73.09957,64.997204 72.188892,61.9005324 C70.3495753,55.6485349 68.3965069,47.3029848 66.6889025,38.3988874 C64.9600113,29.3814809 63.6801395,20.8253091 63.084773,14.3073685 C62.789418,11.0747259 62.677662,8.49261098 62.7515008,6.63167528 C62.8100396,5.15998975 62.932439,2.09797736 65.3531528,1.63274343 C65.5141346,1.60141679 65.6784424,1.58608673 65.8420851,1.58608673 C67.8317402,1.58608673 68.8781219,3.60632173 69.702322,5.50058364 C70.4560095,7.23154711 71.3001661,9.67902414 72.2108441,12.7763623 C74.0508261,19.0283598 76.0032292,27.3739098 77.7101684,36.2773407 C79.4397248,45.2954138 80.7195966,53.8515856 81.3142979,60.3695262 C81.6103181,63.6021688 81.7220741,66.1842837 81.6475701,68.0452194 C81.5896965,69.5169049 81.4672971,72.5782508 79.0459181,73.0441512 C78.8856015,73.0748114 78.7212937,73.0908079 78.557651,73.0908079" id="Fill-22" fill="#016636"></path>
                        <g id="Group-26" transform="translate(74.825976, 0.030686)">
                            <mask id="mask-21" fill="white">
                                <use xlink:href="#path-20"></use>
                            </mask>
                            <g id="Clip-25"></g>
                            <path d="M5.72532159,11.2373322 C5.10201606,16.9254501 4.60310555,25.6362555 4.60310555,36.5112651 C4.60310555,47.3862747 5.10201606,56.0970801 5.72532159,61.785198 C6.34862713,56.0970801 6.84753764,47.3862747 6.84753764,36.5112651 C6.84753764,25.6362555 6.34862713,16.9254501 5.72532159,11.2373322 M5.72532159,72.8701628 C3.26003845,72.8701628 2.56355937,69.8861337 2.22895672,68.4524401 C1.80588061,66.6388276 1.43003469,64.0820406 1.11073196,60.8520641 C0.468135221,54.3381226 0.11357615,45.6939697 0.11357615,36.5112651 C0.11357615,27.3285606 0.468135221,18.6837411 1.11073196,12.1697996 C1.43003469,8.94048964 1.80588061,6.3830361 2.22895672,4.56942363 C2.56355937,3.1363965 3.26003845,0.152367443 5.72532159,0.151700919 C8.19060474,0.151700919 8.88708381,3.13572997 9.22168646,4.56942363 C9.64476258,6.3830361 10.0212737,8.94048964 10.3399112,12.1697996 C10.982508,18.6844076 11.337067,27.3285606 11.337067,36.5112651 C11.337067,45.6933031 10.982508,54.3381226 10.3399112,60.8520641 C10.0212737,64.0820406 9.64476258,66.6388276 9.22168646,68.4524401 C8.88708381,69.8861337 8.19060474,72.8701628 5.72532159,72.8701628" id="Fill-24" fill="#019A6A" mask="url(#mask-21)"></path>
                        </g>
                    </g>
                </g>
            </g>
        </g>
    </g>
</svg>