<?xml version="1.0" encoding="UTF-8" standalone="no"?>
<svg width="31px" height="36px" viewBox="0 0 31 36" version="1.1" xmlns="http://www.w3.org/2000/svg" xmlns:xlink="http://www.w3.org/1999/xlink">
    <!-- Generator: Sketch 40.3 (33839) - http://www.bohemiancoding.com/sketch -->
    <title>social-tux</title>
    <desc>Created with Sketch.</desc>
    <defs></defs>
    <g id="Page-1" stroke="none" stroke-width="1" fill="none" fill-rule="evenodd">
        <g id="Tablet" transform="translate(-529.000000, -1099.000000)" fill="#FFFFFF">
            <g id="Platforms" transform="translate(0.000000, 1041.000000)">
                <g id="Linux" transform="translate(525.000000, 58.000000)">
                    <g id="social-tux" transform="translate(4.000000, 0.000000)">
                        <g id="Layer_1">
                            <g id="Group">
                                <path d="M15.2097996,5.55634744 C15.1616927,5.63652561 15.1135857,5.71670379 15.0734967,5.80489978 C15.2178174,5.52427617 15.4182628,5.28374165 15.6668151,5.10734967 C15.498441,5.21158129 15.3380846,5.355902 15.2097996,5.55634744 C15.1616927,5.63652561 15.3380846,5.355902 15.2097996,5.55634744 L15.2097996,5.55634744 Z" id="Shape"></path>
                                <path d="M28.9683742,29.1848552 C28.4311804,28.8641425 27.9100223,28.3028953 28.0062361,27.6775056 C28.1906459,26.4507795 28.2066815,25.9536748 27.9902004,25.6089087 C27.8379421,25.3523385 27.5492205,25.2080178 27.3006682,25.1437951 C27.4610245,24.9433497 27.5492205,24.7109131 27.6053452,24.2699332 C27.7530334,23.1339688 27.3456481,21.8108686 27.0753675,20.7226102 C26.7189755,19.2874209 26.2480089,17.9954298 25.437167,16.7520267 C24.1151091,14.7244811 22.4502895,12.9993675 21.2793675,10.8641425 C20.5016392,8.5389755 20.9345212,7.08775056 20.8944321,5.55634744 C20.8222717,2.56570156 18.7376392,0 15.714922,0 L14.5924276,0 C11.5857461,0 9.94209354,2.15679287 9.94209354,4.81069042 C9.99797773,6.14693987 10.0504944,7.48326949 10.1024499,8.81959911 C10.1641069,10.4035991 10.2612027,11.8396704 9.4610245,13.2534521 C8.8971314,14.2547171 7.89185746,15.0518486 7.16857016,15.937657 C6.40487305,16.8729354 6.12144321,17.8353942 5.73666815,18.9538797 C5.25664143,20.3490601 4.03087751,21.4318664 3.74135412,22.8769176 C3.60841871,23.5400713 3.95991982,24.3086592 3.67480624,24.8567572 C3.37830735,25.4267439 3.60962138,26.0168552 3.44766147,26.5951804 C3.16663697,27.5355902 1.78548775,27.455412 1.02507795,27.5178708 C-0.386218263,27.6335679 0.139028953,28.9601158 0.396240535,29.8992428 C0.845077951,31.5376837 -1.17044098,33.27298 1.28076615,33.9459154 C2.40237862,34.2537996 3.57273942,34.3572294 4.70653898,34.6129978 C5.82751002,34.8658797 6.86469488,35.3034922 7.94541648,35.6763207 C8.78480178,35.9658441 9.56998664,36.0087394 10.3766592,35.5775412 C11.2571759,35.1068953 11.8957951,34.3682138 12.9175857,34.2145122 C14.8985479,33.9165702 17.3136748,33.8802494 19.2815679,34.2650245 C19.8834655,34.3827261 20.089363,34.7881871 20.4766236,35.2084009 C21.1296748,35.9170156 22.2015768,36.0202049 23.1059866,35.8674655 C24.0593051,35.7063073 24.7773808,35.1084989 25.4861559,34.4954566 C26.4904677,33.6267261 27.5817728,33.0525702 28.7567038,32.4471448 C29.3531492,32.1398218 30.5348953,31.6944321 30.6937283,30.9315367 C30.8807038,30.0325791 29.5570423,29.5362762 28.9683742,29.1848552 L28.9683742,29.1848552 Z M10.9844098,33.6187082 C10.8801782,34.6610245 9.86993318,35.2463252 8.94788419,35.166147 C7.38424944,35.0339332 5.91233853,34.1850067 4.36457906,33.9033408 C3.61146548,33.7663163 0.568062361,33.6489354 0.600775056,32.5339777 C0.618013363,31.9437862 1.06187973,31.5986192 1.2074833,31.0574967 C1.43286414,30.2197149 0.746218263,29.4593853 0.700757238,28.6393229 C0.664917595,27.9914031 1.56106904,28.0294076 2.00669933,27.9936481 C2.70914031,27.937363 3.54267261,27.8323296 3.89665924,27.1082405 C4.02494432,26.8436526 3.85657016,25.9055679 4.04899777,25.3603563 C4.33178619,24.546147 5.29087751,24.6428419 5.91714922,24.9675635 C7.34127394,25.694539 8.2377461,27.8175768 9.00665479,29.1224766 C9.78638753,30.4458976 11.1483742,31.9785033 10.9844098,33.6187082 L10.9844098,33.6187082 Z M20.3091314,28.35902 C20.4926592,29.3040802 20.647804,30.3143252 20.4454343,31.2694878 C20.2837951,32.0324633 19.7589488,32.5213898 19.4271715,33.1937639 C19.2507795,32.6485523 20.3331849,31.8547884 20.2129176,30.4917595 C20.2095501,30.4536748 20.1369889,29.6192606 20.129853,29.6231091 C19.9711804,29.7098619 19.8231715,30.0300134 19.704588,30.1627082 C19.3190111,30.5943073 18.8409889,30.937069 18.3632873,31.2593051 C17.257069,32.0054432 16.0204009,32.4666281 14.6887216,32.5924276 C13.00498,32.752784 11.641951,31.7505568 11.641951,31.7505568 C11.8437595,32.4164365 12.3629131,33.4342984 11.730147,34.0195991 C11.8698976,32.764971 11.3391982,31.7697996 10.8000802,30.6761693 C14.5182628,28.7006592 7.48367038,25.5129354 6.55063697,24.277951 C5.71069042,23.1637951 6.10540757,21.7258797 6.3341559,20.7902004 C6.05810245,21.8946548 6.01673051,24.1541559 7.45665033,24.542539 C8.09182183,24.7164454 7.906049,21.5702539 7.93643653,21.2181114 C8.06311804,19.7498886 8.5554922,18.3319376 9.40714477,17.1278218 C9.67967038,16.7424855 9.5565167,16.3634833 9.62146102,15.8993318 C9.75720267,15.0439911 10.2063608,14.2519109 10.7029042,13.5561247 C11.1173452,12.9753942 10.8420134,12.5444365 10.9445612,11.8679733 C11.0028508,11.4835189 11.3549131,12.1239822 11.4094343,12.2110557 C11.730147,12.7322138 12.7484098,14.0311002 13.3898352,13.9749755 C14.4543608,13.8818886 15.3695947,12.6970958 16.2774521,12.2073675 C16.5653719,12.0520624 17.4328196,11.7870735 17.549559,11.4350913 C17.691314,11.0077416 16.5340223,11.4221826 16.4179243,11.4818352 C15.5534432,11.9256214 13.9309577,13.2014967 12.9007483,12.7081604 C12.1982272,12.3718129 12.0435635,11.5059688 11.5216837,11.0645078 C12.7564276,12.154931 13.2455145,11.9063786 13.7346013,11.7941292 C14.5095234,11.6191804 15.2417105,11.2740935 15.9635546,10.9522584 C16.3016659,10.8015234 17.5756971,10.6282584 17.751608,10.2547082 C17.9716971,9.78694878 17.3467082,9.71542984 17.1047305,9.96767038 C16.6035367,10.4900312 15.8336659,10.6877506 15.1726771,10.9127305 C13.6585122,11.4280356 12.1544499,11.6448374 11.0166414,10.222637 C10.346833,9.40385746 12.2640535,8.41830735 12.7965969,7.91350557 C12.7965969,7.91350557 12.8767751,7.33622272 12.74849,6.89524276 C12.5961514,6.37408463 12.1231002,6.14958575 11.7943697,6.24579955 C11.4656392,6.33399555 11.1529443,6.68677951 11.2491581,7.43243653 C11.3293363,8.09791537 11.8104053,8.31439644 11.8104053,8.31439644 C11.8104053,8.31439644 11.5939243,8.59502004 11.3934788,8.69123385 C11.3934788,8.69123385 11.3293363,8.6671804 11.1128552,8.18611136 C10.8963742,7.70504232 10.5836793,6.62263697 11.0888018,5.69257016 C11.5939243,4.76250334 12.660294,5.27564365 12.9970423,5.99724722 C13.3097372,6.66272606 13.1894699,7.81729176 13.1894699,7.81729176 C13.4587082,7.74970156 13.7374878,7.71306013 14.0153051,7.71306013 C14.3554209,7.71306013 14.5616392,8.07891314 14.8651938,8.09791537 C14.8142806,8.09791537 14.8199733,6.64476615 14.8465122,6.488098 C14.9346281,5.96774165 15.1762049,5.39615145 15.642922,5.10726949 C16.9327483,4.18594209 18.4170869,5.42124722 18.4170869,6.80704677 C18.4190111,7.16672606 18.4061024,7.54588864 18.3209532,7.89746993 C18.2681158,8.10889978 18.1941114,8.57649889 17.910922,8.63326503 C17.819118,8.65170601 17.0543786,8.59870824 17.2706993,8.37052116 C18.2975412,7.3432784 17.1246147,5.30715367 15.8755991,6.4061559 C15.4265212,6.74282405 15.4359822,7.51526058 15.4906637,8.00971938 C15.5786993,8.74262806 17.135118,8.93505568 17.643608,9.11457461 C18.3029933,9.34733185 18.2804633,9.88636971 18.179118,10.4869042 C18.0267795,11.3897105 17.9534165,11.9936125 18.5303786,12.7490512 C19.1192071,13.5200445 19.5670022,14.35951 19.8064143,15.304971 C19.9253185,15.774735 19.9399109,16.174343 20.2570958,16.5533452 C20.7368018,17.1266993 21.1085078,17.7403831 21.3227439,18.4629488 C21.7416748,19.8757684 21.8449443,21.30302 21.8168018,22.7625033 C21.7767127,23.4198842 21.6484276,23.9651759 22.4822806,23.5401514 C22.8029933,23.3797951 23.0034388,23.3077149 23.3642405,23.2435724 C23.6128731,22.7383697 23.7170245,21.7762316 23.7250423,21.2951626 C23.741078,20.2127572 23.7009889,17.9677684 21.5041871,15.5624232 C21.5041871,15.5624232 23.789265,17.3022895 24.1500668,20.5334699 C24.3505122,22.3215234 23.9897105,23.2915991 23.9897105,23.2915991 C24.4146548,23.3958307 24.8556347,23.7165434 25.0801336,24.0773452 C25.0694699,24.059706 25.1633586,24.2174967 25.1746637,24.2267973 C24.3880356,23.5716615 22.6323742,23.1957862 21.9932739,24.2457194 C21.8329176,24.5103073 21.7447216,24.8550735 21.7367038,25.1837238 C21.1674388,25.0875902 20.7425746,25.1837238 20.3897105,25.5765969 C19.9242762,26.1461024 20.1487751,27.525167 20.3091314,28.35902 C20.4694878,29.1848552 20.1487751,27.525167 20.3091314,28.35902 L20.3091314,28.35902 Z M12.4757238,7.44855234 C12.4596882,7.05567929 12.3073497,6.72694878 12.0988864,6.58262806 C12.1229399,6.55857461 12.163029,6.52650334 12.2351893,6.55055679 C12.3474388,6.58262806 12.5158129,6.76703786 12.5799555,7.05567929 C12.6360802,7.28819599 12.6120267,7.67305122 12.467706,7.67305122 C12.4675457,7.59816481 12.4701915,7.52335857 12.4757238,7.44855234 C12.4596882,7.05567929 12.4757238,7.52071269 12.4757238,7.44855234 L12.4757238,7.44855234 Z M16.8614699,6.48641425 C16.8935412,6.4623608 16.9497461,6.43830735 17.0458797,6.4623608 C17.1902806,6.49443207 17.3986637,6.68685969 17.4709042,6.95946548 C17.5269488,7.18396437 17.478922,7.55278396 17.2945122,7.54476615 C17.2941114,7.47236526 17.2994833,7.4002049 17.3105479,7.32828508 C17.3024499,6.95946548 17.1260579,6.63875278 16.8614699,6.48641425 C16.8935412,6.4623608 17.1260579,6.63875278 16.8614699,6.48641425 L16.8614699,6.48641425 Z M27.8538976,32.1434298 C26.4504588,32.7490156 25.344,33.7444276 24.0761425,34.5640089 C22.9677595,35.2805612 21.0168641,35.2305301 20.8672517,33.5313942 C20.7417728,32.106147 21.2027171,30.7020668 21.0147795,29.2533274 C20.8875367,28.2720267 20.330539,26.9356971 20.8302895,25.9777283 C21.0467706,25.5688196 21.4798129,25.5367483 21.8325167,25.6570156 C22.0885256,26.7207394 22.949559,27.5492205 24.0775056,27.5492205 C25.44302,27.5492205 25.9650601,26.4260846 26.8035635,25.5848552 C27.0761693,25.6008909 27.396882,25.6731314 27.5091314,25.9697906 C27.6936214,26.4348241 27.3568731,27.3729087 27.3648107,27.7577639 C27.3888641,29.0165612 28.0864143,29.2971849 29.4815145,30.082931 C30.7082405,30.7884187 29.8182628,31.2935412 27.8538976,32.1434298 C25.9216036,32.9772829 29.8182628,31.2935412 27.8538976,32.1434298 L27.8538976,32.1434298 Z" id="Shape"></path>
                            </g>
                        </g>
                    </g>
                </g>
            </g>
        </g>
    </g>
</svg>